<?xml version="1.0" encoding="iso-8859-1"?>
<!-- Generator: Adobe Illustrator 23.0.2, SVG Export Plug-In . SVG Version: 6.00 Build 0)  -->
<svg version="1.1" xmlns="http://www.w3.org/2000/svg" xmlns:xlink="http://www.w3.org/1999/xlink" x="0px" y="0px"
	 viewBox="0 0 64 64" style="enable-background:new 0 0 64 64;" xml:space="preserve">
<g id="_x31_2">
	<path style="fill:#28A400;" d="M23.542,25.302c0,0,0.075-3.342-4.203-7.888c4.203,0,7.487,2.807,7.487,2.139
		c0-0.668-3.397-7.016-6.421-8.823c5.53-1.649,9.61,4.412,9.61,4.412s-2.128-5.749,0.952-12.166l1.208-2.317l1.556,2.317
		c3.079,6.417,0.952,12.166,0.952,12.166s4.08-6.061,9.61-4.412c-3.024,1.807-6.421,8.155-6.421,8.823
		c0,0.668,3.283-2.139,7.487-2.139c-4.278,4.545-4.203,7.888-4.203,7.888"/>
	<path style="fill:#FFE132;" d="M32,63.34L32,63.34c-7.685,0-13.915-6.23-13.915-13.915V36.37c0-7.685,6.23-13.915,13.915-13.915h0
		c7.685,0,13.915,6.23,13.915,13.915v13.056C45.915,57.11,39.685,63.34,32,63.34z"/>
	<path style="fill:#595959;" d="M41.76,25.555c0.034-0.081,0.054-0.17,0.054-0.263c0-0.031,0.022-3.172,4.024-7.425
		c0.181-0.192,0.23-0.473,0.125-0.714c-0.104-0.242-0.343-0.398-0.606-0.398c-2.661,0-4.98,1.068-6.344,1.738
		c1.025-1.997,3.474-5.915,5.617-7.196c0.225-0.134,0.349-0.389,0.317-0.649c-0.033-0.26-0.215-0.476-0.466-0.551
		c-3.718-1.111-6.772,0.909-8.576,2.633c0.324-2.367,0.328-6.067-1.579-10.04c-0.014-0.028-0.029-0.056-0.047-0.083l-1.556-2.317
		c-0.13-0.193-0.347-0.3-0.585-0.291c-0.232,0.013-0.441,0.147-0.549,0.354l-1.217,2.336c-1.906,3.973-1.903,7.672-1.578,10.04
		c-1.805-1.724-4.86-3.742-8.577-2.633c-0.251,0.075-0.434,0.291-0.466,0.551c-0.033,0.26,0.092,0.514,0.317,0.649
		c2.155,1.288,4.621,5.244,5.633,7.203c-1.362-0.67-3.689-1.746-6.36-1.746c-0.263,0-0.502,0.157-0.606,0.398
		c-0.104,0.242-0.055,0.522,0.125,0.714c3.346,3.556,3.908,6.327,4.003,7.16c-3.312,2.674-5.436,6.764-5.436,11.343v13.056
		c0,0.119,0.006,0.236,0.009,0.355c-0.003,0.036-0.001,0.07,0.003,0.106c0.048,1.523,0.329,2.988,0.811,4.36
		c0.006,0.018,0.011,0.036,0.018,0.054c0.656,1.841,1.669,3.514,2.96,4.931c0.009,0.011,0.013,0.024,0.023,0.034
		c0.008,0.008,0.019,0.01,0.027,0.018c1.276,1.386,2.816,2.524,4.54,3.336c0.021,0.01,0.04,0.02,0.062,0.028
		c1.729,0.804,3.64,1.277,5.654,1.341c0.017,0.002,0.034,0.001,0.051,0.001C31.722,63.993,31.86,64,32,64
		c0.117,0,0.232-0.006,0.348-0.009C32.366,63.993,32.383,64,32.401,64c0.02,0,0.04-0.01,0.06-0.012
		c2.016-0.063,3.93-0.536,5.661-1.341c0.022-0.008,0.041-0.018,0.062-0.028c1.724-0.811,3.264-1.949,4.539-3.335
		c0.008-0.007,0.019-0.01,0.027-0.018c0.01-0.01,0.013-0.023,0.023-0.034c1.291-1.417,2.305-3.09,2.96-4.931
		c0.008-0.018,0.012-0.036,0.018-0.054c0.485-1.38,0.767-2.854,0.812-4.387c0.001-0.016,0.002-0.031,0.001-0.047
		c0.003-0.129,0.01-0.257,0.01-0.386V36.37C46.575,32.084,44.714,28.224,41.76,25.555z M44.808,52.778l-0.456-0.456l0.705-0.705
		C44.992,52.01,44.908,52.397,44.808,52.778z M42.244,57.825l-1.697-1.697l2.873-2.873l0.935,0.935
		C43.841,55.516,43.132,56.745,42.244,57.825z M38.023,61.218l-1.283-1.283l2.873-2.873l1.743,1.743
		C40.383,59.774,39.256,60.585,38.023,61.218z M32,62.68L32,62.68c-0.046,0-0.089-0.006-0.135-0.007l-2.738-2.738L32,57.062
		l2.873,2.873l-2.738,2.738C32.089,62.673,32.045,62.68,32,62.68z M22.644,58.805l1.743-1.743l2.873,2.873l-1.283,1.283
		C24.744,60.585,23.617,59.775,22.644,58.805z M19.646,54.19l0.935-0.935l2.873,2.873l-1.697,1.697
		C20.868,56.745,20.159,55.516,19.646,54.19z M18.746,36.37c0-0.056,0.008-0.11,0.008-0.166l0.893,0.894l-0.902,0.902V36.37z
		 M20.306,30.143l3.148,3.147l-2.873,2.873l-1.685-1.685C19.119,32.933,19.597,31.469,20.306,30.143z M45.104,34.479l-1.685,1.685
		l-2.873-2.873l3.148-3.147C44.403,31.469,44.881,32.933,45.104,34.479z M45.254,41.94l-1.836,1.835l-2.873-2.873l2.873-2.873
		l1.836,1.835V41.94z M45.254,49.425c0,0.045-0.006,0.089-0.007,0.134l-1.829,1.829l-2.873-2.873l2.873-2.873l1.836,1.835V49.425z
		 M18.746,49.425v-1.947l1.836-1.835l2.873,2.873l-2.873,2.873l-1.829-1.829C18.752,49.515,18.746,49.471,18.746,49.425z
		 M18.746,39.866l1.836-1.835l2.873,2.873l-2.873,2.873l-1.836-1.835V39.866z M32,34.224l2.873,2.873L32,39.97l-2.873-2.873
		L32,34.224z M32,32.357l-2.873-2.873L32,26.612l2.873,2.873L32,32.357z M29.127,44.709L32,41.837l2.873,2.873L32,47.582
		L29.127,44.709z M31.066,48.515l-2.873,2.873l-2.873-2.873l2.873-2.873L31.066,48.515z M35.806,45.643l2.873,2.873l-2.873,2.873
		l-2.873-2.873L35.806,45.643z M36.74,44.709l2.873-2.873l2.873,2.873l-2.873,2.872L36.74,44.709z M35.806,43.776l-2.873-2.873
		l2.873-2.873l2.873,2.873L35.806,43.776z M31.066,40.903l-2.873,2.873l-2.873-2.873l2.873-2.873L31.066,40.903z M27.26,44.709
		l-2.873,2.873l-2.873-2.873l2.873-2.873L27.26,44.709z M24.387,49.449l2.873,2.873l-2.873,2.873l-2.873-2.873L24.387,49.449z
		 M28.194,53.255l2.873,2.873l-2.873,2.873l-2.873-2.873L28.194,53.255z M29.127,52.322L32,49.449l2.873,2.873L32,55.195
		L29.127,52.322z M35.807,53.255l2.873,2.873l-2.873,2.873l-2.873-2.873L35.807,53.255z M36.74,52.322l2.873-2.873l2.873,2.873
		l-2.873,2.873L36.74,52.322z M42.485,37.097l-2.873,2.873l-2.873-2.873l2.873-2.873L42.485,37.097z M35.806,36.164l-2.873-2.873
		l2.873-2.873l2.873,2.873L35.806,36.164z M32.934,25.678l2.179-2.179c1.449,0.351,2.805,0.936,4.026,1.72l-3.332,3.332
		L32.934,25.678z M32,24.745l-1.534-1.534c0.504-0.058,1.014-0.096,1.534-0.096c0.519,0,1.029,0.038,1.533,0.096L32,24.745z
		 M28.888,23.499l2.179,2.179l-2.873,2.873l-3.332-3.332C26.083,24.435,27.439,23.85,28.888,23.499z M31.066,33.29l-2.873,2.873
		l-2.873-2.873l2.873-2.873L31.066,33.29z M27.26,37.097l-2.873,2.873l-2.873-2.873l2.873-2.873L27.26,37.097z M19.648,44.709
		l-0.902,0.902v-1.804L19.648,44.709z M18.942,51.617l0.705,0.705l-0.456,0.456C19.092,52.397,19.008,52.01,18.942,51.617z
		 M28.194,60.868l1.615,1.615c-0.879-0.147-1.727-0.379-2.539-0.691L28.194,60.868z M35.807,60.868l0.924,0.924
		c-0.812,0.312-1.66,0.544-2.539,0.691L35.807,60.868z M44.352,44.709l0.902-0.902v1.804L44.352,44.709z M44.353,37.097l0.893-0.894
		c0.001,0.056,0.008,0.11,0.008,0.166v1.629L44.353,37.097z M42.994,28.975l-3.382,3.382l-2.873-2.873l3.488-3.488
		C41.293,26.844,42.231,27.844,42.994,28.975z M25.356,19.804c0.923,0.458,1.344,0.667,1.779,0.398
		c0.22-0.137,0.351-0.378,0.351-0.648c0-0.908-2.768-5.924-5.498-8.435c4.297-0.236,7.445,4.341,7.479,4.393
		c0.187,0.277,0.551,0.368,0.848,0.217c0.297-0.151,0.434-0.502,0.319-0.815c-0.02-0.055-1.986-5.581,0.917-11.633l0.694-1.331
		l0.91,1.354c2.884,6.055,0.927,11.555,0.907,11.61c-0.115,0.313,0.022,0.664,0.32,0.815c0.297,0.153,0.661,0.059,0.847-0.219
		c0.034-0.052,3.177-4.645,7.48-4.393c-2.73,2.51-5.499,7.528-5.499,8.435c0,0.269,0.131,0.511,0.351,0.648
		c0.435,0.269,0.855,0.061,1.779-0.398c1.024-0.507,2.591-1.284,4.44-1.594c-2.389,2.923-3.04,5.251-3.218,6.375
		c-2.406-1.753-5.364-2.79-8.562-2.79c-2.93,0-5.658,0.872-7.946,2.366c-0.267-1.233-1.019-3.358-3.138-5.951
		C22.766,18.52,24.332,19.297,25.356,19.804z M23.773,25.997l3.487,3.487l-2.873,2.873l-3.382-3.381
		C21.769,27.844,22.707,26.844,23.773,25.997z"/>
</g>
<g id="Layer_1">
</g>
</svg>
