<?xml version="1.0" encoding="UTF-8" standalone="no"?>
<!DOCTYPE svg PUBLIC "-//W3C//DTD SVG 1.1//EN" "http://www.w3.org/Graphics/SVG/1.1/DTD/svg11.dtd">
<svg xmlns="http://www.w3.org/2000/svg" version="1.1" viewBox="0.00 0.00 1000.00 1000.00">
<g stroke-width="2.00" fill="none" stroke-linecap="butt">
<path stroke="#110610" vector-effect="non-scaling-stroke" d="
  M 594.47 620.30
  Q 593.96 621.50 594.42 622.44"
/>
<path stroke="#908590" vector-effect="non-scaling-stroke" d="
  M 594.42 622.44
  C 594.62 627.41 595.50 634.20 591.34 638.56
  Q 590.98 638.93 591.06 639.17
  Q 591.16 639.47 591.69 639.70"
/>
<path stroke="#110610" vector-effect="non-scaling-stroke" d="
  M 591.69 639.70
  Q 590.90 639.62 591.10 640.70
  Q 591.19 641.19 591.60 641.47
  Q 592.98 642.44 592.50 644.10"
/>
<path stroke="#110610" vector-effect="non-scaling-stroke" d="
  M 413.14 641.51
  Q 412.30 640.69 412.52 640.50"
/>
<path stroke="#908590" vector-effect="non-scaling-stroke" d="
  M 412.52 640.50
  Q 407.16 637.32 407.26 631.24
  Q 407.27 630.51 406.50 630.29"
/>
<path stroke="#110610" vector-effect="non-scaling-stroke" d="
  M 406.50 630.29
  Q 406.90 629.75 406.15 628.36"
/>
<path stroke="#804425" vector-effect="non-scaling-stroke" d="
  M 657.46 751.20
  C 658.96 750.79 660.85 753.16 661.65 754.27
  C 669.40 765.09 678.83 776.98 680.91 790.76
  Q 682.31 800.03 683.78 809.24
  Q 684.50 813.79 686.53 817.96
  C 688.15 821.28 692.03 824.99 695.97 823.63
  C 699.76 822.32 701.56 816.89 701.69 813.33
  Q 702.19 799.03 698.46 780.98
  Q 697.08 774.29 694.19 769.27
  Q 689.95 761.91 684.42 753.29
  Q 682.18 749.78 680.59 745.80
  Q 680.56 745.73 680.63 745.69
  L 680.63 745.69
  Q 680.79 745.61 680.88 745.75
  Q 684.62 751.83 688.80 757.67
  C 694.17 765.19 698.32 772.39 700.71 782.16
  Q 701.76 786.43 702.59 793.15
  Q 703.42 799.88 704.32 807.36
  Q 704.97 812.80 703.74 817.74
  A 0.30 0.30 0.0 0 0 704.14 818.10
  C 708.68 816.41 711.04 810.68 712.10 806.38
  Q 715.18 793.89 715.80 781.05
  Q 716.09 775.06 715.32 770.47
  C 713.97 762.33 710.58 754.92 707.82 747.38
  Q 706.92 744.90 706.27 741.08
  Q 706.26 741.02 706.32 741.01
  L 706.57 740.95
  Q 706.81 740.89 706.89 741.13
  Q 708.64 746.70 711.18 752.50
  C 714.87 760.91 718.75 770.26 718.29 779.55
  Q 718.11 783.13 719.23 786.46
  C 721.93 794.53 726.65 802.60 736.03 801.90
  C 740.83 801.53 743.69 796.32 742.28 791.95
  Q 741.24 788.75 739.56 786.56
  C 731.22 775.72 724.61 764.99 720.77 752.00
  C 717.76 741.83 715.21 731.69 710.45 722.10
  Q 706.08 713.27 700.06 710.31
  C 693.38 707.02 686.23 705.49 679.41 702.57
  Q 676.64 701.39 674.14 699.06
  Q 673.71 698.66 674.22 698.95
  C 677.04 700.54 679.94 702.07 683.03 702.97
  Q 687.42 704.25 692.25 705.70
  Q 692.98 705.92 692.94 705.16
  Q 692.52 697.40 686.16 692.98
  C 672.86 683.73 654.66 685.42 640.83 692.87
  Q 637.20 694.82 635.51 697.01
  Q 633.40 699.76 632.46 700.63"
/>
<path stroke="#808080" vector-effect="non-scaling-stroke" d="
  M 591.69 639.70
  C 597.04 642.01 602.48 642.65 608.14 643.77
  C 616.29 645.37 623.33 648.34 630.45 652.84
  Q 631.64 653.59 630.81 652.45
  Q 627.28 647.58 623.58 643.49
  Q 622.31 642.09 620.60 641.20
  Q 620.25 641.02 620.43 640.66
  L 620.54 640.44
  Q 620.64 640.24 620.85 640.33
  C 626.36 642.84 630.86 649.17 634.40 653.92
  Q 637.43 657.97 640.83 662.22
  Q 644.72 667.07 648.33 674.10
  C 649.91 677.19 652.26 682.44 650.67 685.59
  A 0.28 0.27 4.3 0 0 651.00 685.97
  Q 661.98 682.54 673.19 684.64
  A 0.23 0.23 0.0 0 0 673.44 684.31
  C 666.83 670.98 659.14 657.50 649.13 646.77
  Q 630.37 626.65 602.84 622.39
  Q 599.17 621.82 594.42 622.44"
/>
<path stroke="#808080" vector-effect="non-scaling-stroke" d="
  M 406.50 630.29
  Q 403.11 630.91 399.92 632.14
  C 378.30 640.51 361.58 656.49 350.49 676.99
  Q 339.93 696.53 335.88 716.02
  Q 335.21 719.22 333.79 728.99
  Q 332.85 735.47 331.56 741.65
  A 0.59 0.59 0.0 0 0 332.44 742.28
  Q 345.14 734.82 358.02 735.61
  Q 358.57 735.64 358.56 735.09
  Q 358.29 722.89 359.92 711.50
  Q 361.72 698.93 367.99 685.18
  Q 376.74 666.01 394.47 652.71
  Q 402.89 646.40 412.52 640.50"
/>
<path stroke="#804425" vector-effect="non-scaling-stroke" d="
  M 657.31 751.16
  Q 655.65 750.18 654.62 748.49
  A 0.10 0.09 57.2 0 0 654.50 748.46
  L 654.28 748.60
  Q 654.01 748.77 654.19 749.03
  Q 655.07 750.32 655.31 751.74
  Q 655.54 753.12 656.14 754.32
  Q 657.89 757.86 658.72 762.00
  C 660.72 772.03 661.17 784.92 659.39 795.83
  Q 658.36 802.20 657.41 808.59
  C 656.19 816.84 651.28 823.49 642.36 823.94
  C 630.30 824.55 631.31 807.20 632.92 799.74
  C 634.01 794.72 635.31 790.07 635.73 784.84
  Q 636.46 775.73 636.57 767.89
  Q 636.88 746.94 615.79 744.46
  Q 615.58 744.44 615.58 744.64
  L 615.58 744.95
  Q 615.58 745.13 615.75 745.18
  Q 620.32 746.35 624.64 748.58
  Q 627.69 750.16 624.26 750.01
  Q 609.43 749.37 599.40 760.64
  Q 594.66 765.97 589.78 771.05
  C 580.34 780.86 565.87 785.71 554.30 775.97"
/>
<path stroke="#904935" vector-effect="non-scaling-stroke" d="
  M 554.30 775.97
  Q 554.35 775.87 554.37 775.72
  Q 554.39 775.54 554.58 775.57
  Q 556.00 775.78 557.14 775.43
  Q 573.27 770.38 577.71 754.07
  A 2.02 2.01 82.0 0 1 578.62 752.86
  C 583.62 749.86 587.96 746.51 592.03 742.20
  C 596.98 736.94 601.10 731.17 605.55 725.48
  Q 613.95 714.74 625.77 707.25
  C 633.64 702.27 642.56 700.82 651.76 699.42
  Q 653.86 699.10 656.11 698.40
  Q 656.17 698.39 656.16 698.33
  L 656.11 698.08
  Q 656.06 697.84 655.81 697.86
  Q 649.92 698.53 644.00 698.87
  Q 640.65 699.07 631.48 701.90"
/>
<path stroke="#110610" vector-effect="non-scaling-stroke" d="
  M 554.30 775.97
  L 552.57 776.03"
/>
<path stroke="#110610" vector-effect="non-scaling-stroke" d="
  M 524.41 775.93
  L 508.16 775.90"
/>
<path stroke="#110610" vector-effect="non-scaling-stroke" d="
  M 476.16 775.89
  L 459.96 775.88"
/>
<path stroke="#110610" vector-effect="non-scaling-stroke" d="
  M 487.72 933.70
  Q 487.71 933.98 487.85 934.17"
/>
<path stroke="#657577" vector-effect="non-scaling-stroke" d="
  M 487.85 934.17
  Q 486.30 934.86 486.28 937.12"
/>
<path stroke="#110610" vector-effect="non-scaling-stroke" d="
  M 486.28 937.12
  Q 486.11 937.86 485.94 937.54"
/>
<path stroke="#657577" vector-effect="non-scaling-stroke" d="
  M 485.94 937.54
  L 483.37 944.84"
/>
<path stroke="#110610" vector-effect="non-scaling-stroke" d="
  M 483.37 944.84
  Q 483.27 945.15 482.48 945.42"
/>
<path stroke="#657577" vector-effect="non-scaling-stroke" d="
  M 482.48 945.42
  Q 475.94 947.33 469.32 945.41"
/>
<path stroke="#110610" vector-effect="non-scaling-stroke" d="
  M 469.32 945.41
  Q 469.03 944.93 468.24 944.81"
/>
<path stroke="#657577" vector-effect="non-scaling-stroke" d="
  M 468.24 944.81
  L 471.28 937.05"
/>
<path stroke="#110610" vector-effect="non-scaling-stroke" d="
  M 471.28 937.05
  Q 471.44 936.90 471.50 936.65"
/>
<path stroke="#657577" vector-effect="non-scaling-stroke" d="
  M 471.50 936.65
  Q 472.34 935.64 472.35 934.23"
/>
<path stroke="#110610" vector-effect="non-scaling-stroke" d="
  M 472.35 934.23
  Q 472.58 934.06 472.84 933.43"
/>
<path stroke="#657577" vector-effect="non-scaling-stroke" d="
  M 536.55 923.94
  Q 534.76 924.82 534.73 927.31"
/>
<path stroke="#110610" vector-effect="non-scaling-stroke" d="
  M 534.73 927.31
  Q 534.42 927.53 534.46 927.75"
/>
<path stroke="#657577" vector-effect="non-scaling-stroke" d="
  M 534.46 927.75
  L 531.95 934.40"
/>
<path stroke="#110610" vector-effect="non-scaling-stroke" d="
  M 531.95 934.40
  Q 531.48 934.53 531.49 935.06"
/>
<path stroke="#657577" vector-effect="non-scaling-stroke" d="
  M 531.49 935.06
  Q 524.61 937.17 517.11 935.44"
/>
<path stroke="#110610" vector-effect="non-scaling-stroke" d="
  M 517.11 935.44
  Q 516.57 934.67 516.60 934.47"
/>
<path stroke="#657577" vector-effect="non-scaling-stroke" d="
  M 516.60 934.47
  L 519.60 927.34"
/>
<path stroke="#110610" vector-effect="non-scaling-stroke" d="
  M 519.60 927.34
  Q 520.15 927.31 519.93 926.73"
/>
<path stroke="#657577" vector-effect="non-scaling-stroke" d="
  M 519.93 926.73
  Q 521.08 925.41 520.83 924.01"
/>
<path stroke="#110610" vector-effect="non-scaling-stroke" d="
  M 520.83 924.01
  Q 521.25 923.81 521.53 923.29"
/>
<path stroke="#767b87" vector-effect="non-scaling-stroke" d="
  M 471.50 936.65
  Q 466.44 936.94 464.79 941.16
  Q 464.61 941.63 464.77 942.10
  Q 465.87 945.30 469.32 945.41"
/>
<path stroke="#767b87" vector-effect="non-scaling-stroke" d="
  M 482.48 945.42
  Q 487.22 944.79 489.18 940.57
  Q 489.39 940.11 489.20 939.64
  Q 488.35 937.60 486.28 937.12"
/>
<path stroke="#767b87" vector-effect="non-scaling-stroke" d="
  M 471.28 937.05
  L 467.06 939.37
  A 2.16 2.16 0.0 0 0 466.22 940.21
  Q 464.72 942.85 468.24 944.81"
/>
<path stroke="#767b87" vector-effect="non-scaling-stroke" d="
  M 520.83 924.01
  Q 514.22 925.32 511.24 927.65
  C 506.73 931.17 504.23 935.40 508.05 940.68
  A 0.21 0.20 59.5 0 0 508.30 940.75
  Q 516.85 936.50 526.43 937.82
  Q 530.80 938.42 532.13 938.70
  Q 534.96 939.28 537.58 940.74
  A 1.51 1.51 0.0 0 0 539.45 940.41
  C 542.25 937.18 544.70 935.37 543.29 930.51
  Q 542.32 927.15 536.36 924.07"
/>
<path stroke="#767b87" vector-effect="non-scaling-stroke" d="
  M 540.94 940.97
  Q 540.29 940.75 539.96 940.92
  A 0.48 0.48 0.0 0 0 539.93 941.76
  Q 540.52 942.12 541.22 941.97"
/>
<path stroke="#767b87" vector-effect="non-scaling-stroke" d="
  M 472.35 934.23
  Q 471.92 933.74 471.03 934.36
  Q 470.61 934.65 470.11 934.75
  C 464.46 935.91 458.71 939.71 457.86 945.75
  Q 457.78 946.28 458.12 946.68
  C 458.77 947.47 458.47 948.37 458.97 949.25
  Q 461.00 952.81 465.03 954.08
  Q 470.08 955.67 474.14 955.12
  A 0.74 0.70 57.4 0 1 474.66 955.25
  Q 474.92 955.44 475.24 955.41
  Q 481.03 954.75 486.25 952.93
  C 490.49 951.44 495.53 947.74 495.50 942.84
  C 495.47 938.67 491.47 935.71 487.85 934.17"
/>
<path stroke="#767b87" vector-effect="non-scaling-stroke" d="
  M 483.37 944.84
  Q 486.34 943.09 488.05 940.65
  Q 488.35 940.23 488.11 939.77
  Q 487.47 938.51 485.94 937.54"
/>
<path stroke="#767b87" vector-effect="non-scaling-stroke" d="
  M 531.95 934.40
  Q 534.77 933.14 535.80 930.87
  Q 536.24 929.91 535.80 929.14
  Q 535.37 928.38 534.46 927.75"
/>
<path stroke="#767b87" vector-effect="non-scaling-stroke" d="
  M 519.60 927.34
  Q 517.97 928.02 516.59 928.54
  Q 514.46 929.34 513.92 931.51
  Q 513.80 932.01 514.05 932.45
  Q 514.89 933.89 516.60 934.47"
/>
<path stroke="#767b87" vector-effect="non-scaling-stroke" d="
  M 519.93 926.73
  Q 516.24 926.52 514.08 929.11
  Q 510.46 933.47 517.11 935.44"
/>
<path stroke="#767b87" vector-effect="non-scaling-stroke" d="
  M 531.49 935.06
  Q 534.69 934.57 536.77 931.96
  Q 538.09 930.29 536.71 928.52
  Q 535.95 927.56 534.73 927.31"
/>
<path stroke="#90701c" vector-effect="non-scaling-stroke" d="
  M 560.28 258.61
  Q 521.20 242.67 478.42 248.35
  C 436.55 253.91 397.50 277.46 372.63 311.62
  C 341.89 353.84 333.67 407.67 350.87 457.10
  Q 361.12 486.54 382.70 510.85
  C 386.99 515.68 391.79 519.96 396.14 524.53
  Q 405.59 534.45 411.73 546.13
  Q 420.55 562.91 425.07 585.24
  C 427.47 597.12 428.16 608.21 428.99 619.90
  A 0.56 0.56 0.0 0 0 429.55 620.43
  L 571.76 620.43
  A 0.65 0.65 0.0 0 0 572.41 619.81
  Q 572.90 610.95 573.65 602.33
  C 575.50 581.23 581.51 559.26 592.33 540.88
  C 594.96 536.39 598.34 532.49 601.37 528.45
  C 606.33 521.82 613.50 516.38 618.29 510.90
  Q 652.38 471.93 657.70 422.75
  Q 662.17 381.35 646.35 343.88
  C 630.05 305.30 599.09 274.45 560.28 258.61"
/>
<path stroke="#917a1c" vector-effect="non-scaling-stroke" d="
  M 583.86 327.29
  Q 579.55 326.51 574.75 326.31
  Q 566.06 325.95 558.21 328.75
  C 555.44 329.74 550.52 332.78 550.76 336.28
  C 551.19 342.69 560.81 340.18 564.60 339.73
  Q 568.74 339.24 571.44 339.35
  Q 587.80 340.00 601.08 349.94
  Q 602.25 350.82 603.92 353.52"
/>
<path stroke="#90701c" vector-effect="non-scaling-stroke" d="
  M 603.92 353.52
  Q 614.86 373.81 617.95 395.44
  Q 618.49 399.27 618.63 403.41
  C 618.85 409.89 618.38 417.58 624.77 421.16
  C 629.41 423.75 635.62 422.74 638.83 418.43
  Q 641.44 414.91 641.29 409.58
  Q 639.95 364.23 614.31 328.87
  C 588.90 293.83 548.95 272.69 505.92 270.86
  C 502.55 270.72 499.41 270.46 496.29 271.63
  C 486.83 275.18 487.41 288.39 496.32 291.92
  C 499.66 293.25 504.31 293.06 508.06 293.25
  Q 512.54 293.49 516.88 294.13
  Q 555.57 299.90 583.86 327.29"
/>
<path stroke="#221520" vector-effect="non-scaling-stroke" d="
  M 603.92 353.52
  Q 607.67 354.60 610.74 355.74
  C 612.11 356.25 614.35 355.74 614.70 353.93
  Q 615.00 352.44 616.31 351.52
  Q 617.09 350.97 616.65 351.81
  Q 616.43 352.25 616.16 352.70
  Q 615.78 353.34 616.44 353.01
  Q 617.57 352.46 617.81 351.29
  Q 619.25 344.57 613.48 340.53
  Q 613.17 340.31 613.11 339.93
  Q 613.08 339.77 613.02 339.63
  Q 612.95 339.50 612.81 339.51
  Q 612.73 339.52 612.73 339.60
  Q 612.70 340.04 612.38 339.73
  Q 607.80 335.40 600.25 332.02
  Q 599.45 331.66 598.71 331.43
  Q 594.76 330.19 590.75 328.80
  Q 590.25 328.63 589.72 328.66
  Q 588.69 328.72 587.82 327.93
  Q 587.30 327.45 586.83 327.91
  Q 586.54 328.19 586.19 327.99
  Q 585.08 327.34 583.86 327.29"
/>
<path stroke="#917a1c" vector-effect="non-scaling-stroke" d="
  M 403.46 345.49
  Q 416.36 339.13 431.08 340.96
  Q 435.21 341.47 439.28 342.33
  C 441.87 342.88 445.01 342.93 446.53 340.30
  Q 447.81 338.09 446.40 335.78
  C 443.77 331.51 437.74 329.26 433.15 328.45
  Q 422.01 326.47 409.76 328.45
  C 400.13 330.00 388.06 334.13 381.74 341.68
  C 378.74 345.26 378.26 349.90 382.07 353.09
  Q 385.50 355.96 390.04 353.11
  Q 397.38 348.49 403.46 345.49"
/>
<path stroke="#806b0c" vector-effect="non-scaling-stroke" d="
  M 474.53 406.90
  A 41.86 41.86 0.0 0 0 432.67 365.04
  A 41.86 41.86 0.0 0 0 390.81 406.90
  A 41.86 41.86 0.0 0 0 432.67 448.76
  A 41.86 41.86 0.0 0 0 474.53 406.90"
/>
<path stroke="#806b0c" vector-effect="non-scaling-stroke" d="
  M 606.78 406.90
  A 41.86 41.86 0.0 0 0 564.92 365.04
  A 41.86 41.86 0.0 0 0 523.06 406.90
  A 41.86 41.86 0.0 0 0 564.92 448.76
  A 41.86 41.86 0.0 0 0 606.78 406.90"
/>
<path stroke="#806b0c" vector-effect="non-scaling-stroke" d="
  M 568.34 466.08
  C 574.53 469.05 577.57 473.82 576.67 480.44
  A 0.94 0.94 0.0 0 0 577.53 481.50
  Q 577.70 481.51 577.87 481.50
  Q 578.96 481.41 579.04 480.32
  Q 579.84 469.34 569.99 464.29
  Q 569.10 463.83 568.31 464.44
  Q 567.92 464.74 567.87 465.26
  A 0.83 0.83 0.0 0 0 568.34 466.08"
/>
<path stroke="#806b0c" vector-effect="non-scaling-stroke" d="
  M 422.42 479.39
  C 424.13 473.78 426.76 469.66 432.29 467.24
  Q 432.99 466.93 433.28 466.42
  Q 433.80 465.47 432.70 464.83
  A 1.86 1.86 0.0 0 0 430.51 465.06
  Q 429.21 466.26 427.64 467.30
  C 423.98 469.72 421.42 474.02 420.46 478.17
  Q 420.23 479.16 421.01 479.81
  Q 421.42 480.16 421.99 479.89
  A 0.79 0.78 85.9 0 0 422.42 479.39"
/>
<path stroke="#917a1c" vector-effect="non-scaling-stroke" d="
  M 493.18 505.67
  C 470.06 504.07 448.71 492.01 434.82 473.62
  Q 433.38 471.71 431.30 472.90
  Q 430.93 473.11 430.63 473.48
  Q 429.65 474.70 430.46 476.05
  Q 432.67 479.71 436.47 483.65
  C 454.23 502.07 477.03 511.59 502.32 510.87
  C 524.54 510.24 544.97 501.99 560.97 486.46
  Q 566.45 481.13 570.13 475.34
  Q 571.37 473.39 569.65 471.86
  Q 569.04 471.31 568.11 471.22
  A 1.82 1.82 0.0 0 0 566.45 471.98
  Q 547.91 498.09 516.02 504.34
  Q 505.00 506.49 493.18 505.67"
/>
<path stroke="#808080" vector-effect="non-scaling-stroke" d="
  M 470.95 406.89
  A 38.30 38.30 0.0 0 0 432.65 368.59
  A 38.30 38.30 0.0 0 0 394.35 406.89
  A 38.30 38.30 0.0 0 0 432.65 445.19
  A 38.30 38.30 0.0 0 0 470.95 406.89"
/>
<path stroke="#808080" vector-effect="non-scaling-stroke" d="
  M 603.20 406.89
  A 38.30 38.30 0.0 0 0 564.90 368.59
  A 38.30 38.30 0.0 0 0 526.60 406.89
  A 38.30 38.30 0.0 0 0 564.90 445.19
  A 38.30 38.30 0.0 0 0 603.20 406.89"
/>
<path stroke="#121010" vector-effect="non-scaling-stroke" d="
  M 591.68 376.80
  Q 591.35 376.32 590.81 376.10
  Q 590.13 375.82 590.59 376.40
  Q 591.39 377.42 592.46 378.17
  Q 592.92 378.50 592.77 377.95
  Q 592.63 377.44 592.13 377.18
  A 1.13 1.08 -3.7 0 1 591.68 376.80"
/>
<path stroke="#121010" vector-effect="non-scaling-stroke" d="
  M 596.9452 382.5562
  A 2.23 0.35 47.2 0 0 595.6868 380.6822
  A 2.23 0.35 47.2 0 0 593.9148 379.2838
  A 2.23 0.35 47.2 0 0 595.1732 381.1578
  A 2.23 0.35 47.2 0 0 596.9452 382.5562"
/>
<path stroke="#808080" vector-effect="non-scaling-stroke" d="
  M 452.16 412.67
  A 19.47 19.47 0.0 0 0 432.69 393.20
  A 19.47 19.47 0.0 0 0 413.22 412.67
  A 19.47 19.47 0.0 0 0 432.69 432.14
  A 19.47 19.47 0.0 0 0 452.16 412.67"
/>
<path stroke="#808080" vector-effect="non-scaling-stroke" d="
  M 584.38 412.66
  A 19.47 19.47 0.0 0 0 564.91 393.19
  A 19.47 19.47 0.0 0 0 545.44 412.66
  A 19.47 19.47 0.0 0 0 564.91 432.13
  A 19.47 19.47 0.0 0 0 584.38 412.66"
/>
<path stroke="#121010" vector-effect="non-scaling-stroke" d="
  M 433.58 430.78
  Q 433.92 431.00 434.25 430.87
  Q 435.92 430.22 437.37 429.91
  Q 439.63 429.43 440.47 429.02
  Q 447.16 425.85 449.65 418.64
  Q 451.28 413.90 450.80 411.32
  Q 450.48 409.63 450.07 407.78
  C 448.40 400.14 441.47 395.11 433.92 394.86
  C 426.48 394.61 420.77 397.18 416.73 403.74
  C 414.61 407.18 415.14 411.02 415.11 414.86
  Q 415.08 417.29 416.04 419.52
  Q 418.81 425.97 424.98 428.87
  Q 426.73 429.69 428.49 429.98
  Q 430.27 430.28 431.78 430.70
  Q 432.39 430.87 432.99 430.69
  A 0.73 0.70 -35.4 0 1 433.58 430.78"
/>
<path stroke="#121010" vector-effect="non-scaling-stroke" d="
  M 583.03 412.66
  A 18.06 18.06 0.0 0 0 564.97 394.60
  A 18.06 18.06 0.0 0 0 546.91 412.66
  A 18.06 18.06 0.0 0 0 564.97 430.72
  A 18.06 18.06 0.0 0 0 583.03 412.66"
/>
<path stroke="#121010" vector-effect="non-scaling-stroke" d="
  M 437.24 409.21
  A 9.31 9.31 0.0 0 0 427.93 399.90
  A 9.31 9.31 0.0 0 0 418.62 409.21
  A 9.31 9.31 0.0 0 0 427.93 418.52
  A 9.31 9.31 0.0 0 0 437.24 409.21"
/>
<path stroke="#121010" vector-effect="non-scaling-stroke" d="
  M 569.57 409.22
  A 9.31 9.31 0.0 0 0 560.26 399.91
  A 9.31 9.31 0.0 0 0 550.95 409.22
  A 9.31 9.31 0.0 0 0 560.26 418.53
  A 9.31 9.31 0.0 0 0 569.57 409.22"
/>
<path stroke="#808080" vector-effect="non-scaling-stroke" d="
  M 435.91 409.13
  A 8.02 8.02 0.0 0 0 427.89 401.11
  A 8.02 8.02 0.0 0 0 419.87 409.13
  A 8.02 8.02 0.0 0 0 427.89 417.15
  A 8.02 8.02 0.0 0 0 435.91 409.13"
/>
<path stroke="#808080" vector-effect="non-scaling-stroke" d="
  M 568.22 409.13
  A 8.04 8.04 0.0 0 0 560.18 401.09
  A 8.04 8.04 0.0 0 0 552.14 409.13
  A 8.04 8.04 0.0 0 0 560.18 417.17
  A 8.04 8.04 0.0 0 0 568.22 409.13"
/>
<path stroke="#804425" vector-effect="non-scaling-stroke" d="
  M 329.94 754.87
  Q 310.24 766.29 301.92 788.52
  Q 296.33 803.46 291.02 816.65
  Q 287.37 825.70 279.30 832.42
  Q 273.21 837.49 266.42 842.82
  C 261.84 846.41 258.37 851.43 260.20 857.45
  A 6.48 6.47 0.6 0 0 264.37 861.71
  Q 266.80 862.52 268.09 862.95
  Q 271.27 864.00 269.47 861.17
  Q 267.50 858.08 269.30 852.61
  C 270.95 847.57 275.10 843.34 278.99 839.99
  C 284.93 834.86 291.03 829.92 295.68 823.90
  Q 300.89 817.13 305.08 810.39
  Q 305.18 810.23 305.35 810.32
  L 305.35 810.32
  Q 305.41 810.35 305.38 810.41
  Q 301.49 818.76 295.65 825.98
  C 288.68 834.58 278.53 840.04 272.44 849.41
  Q 269.86 853.38 270.55 857.89
  Q 270.96 860.54 273.18 862.04
  Q 274.67 863.04 276.56 863.24
  Q 278.08 863.40 277.34 862.06
  Q 275.90 859.46 276.99 856.28
  C 279.37 849.35 285.07 843.92 290.82 839.68
  Q 297.91 834.47 304.99 829.12
  C 313.54 822.66 319.76 815.05 324.75 805.79
  Q 324.82 805.67 324.95 805.73
  L 324.96 805.73
  Q 325.07 805.79 325.02 805.90
  C 317.62 822.78 303.71 831.93 289.57 842.69
  C 285.13 846.06 280.72 850.88 279.24 856.56
  C 277.41 863.62 284.37 865.50 289.55 865.86
  Q 290.31 865.91 289.97 865.22
  C 285.41 855.96 294.46 848.39 301.30 843.99
  C 311.49 837.44 321.04 831.22 329.83 823.12
  C 338.91 814.77 344.41 804.59 346.82 792.50
  A 0.31 0.31 0.0 0 1 347.37 792.37
  Q 347.66 792.75 347.62 793.21
  C 347.00 800.09 344.38 805.73 340.64 811.69
  C 334.15 822.03 323.36 830.96 313.07 837.50
  C 306.01 841.97 296.93 847.16 292.58 854.27
  C 288.60 860.80 294.13 865.64 299.98 867.53
  Q 304.68 869.04 309.36 868.99
  Q 333.91 868.73 347.82 848.54
  Q 354.82 838.39 358.32 827.58
  Q 360.61 820.53 362.89 813.40
  Q 366.17 803.18 375.91 799.66
  C 378.82 798.61 384.42 798.52 386.42 801.46
  Q 386.90 802.16 386.09 801.90
  Q 380.62 800.19 375.01 802.15
  A 0.32 0.32 0.0 0 0 375.02 802.76
  Q 379.56 804.17 381.72 809.14
  Q 385.47 817.77 386.27 827.22
  C 387.18 837.98 388.84 848.53 401.42 851.29
  C 409.20 853.00 417.32 852.13 423.53 846.58
  Q 427.79 842.78 425.33 838.00
  C 421.54 830.62 413.94 827.08 409.29 820.51
  Q 405.78 815.55 403.93 810.64
  Q 400.46 801.41 396.64 792.70
  Q 389.80 777.10 378.17 764.14
  C 373.06 758.44 367.00 754.61 360.39 750.90
  Q 360.04 750.71 359.85 750.77
  A 0.05 0.05 0.0 0 0 359.87 750.87
  C 364.52 750.91 370.07 754.51 373.38 757.38
  Q 373.82 757.75 374.32 757.47
  Q 380.53 753.92 378.38 748.78
  C 374.70 739.95 360.78 736.66 352.64 737.39
  Q 336.40 738.84 323.81 750.28
  Q 321.43 752.45 320.06 755.55
  C 319.53 756.74 319.71 758.08 319.84 759.34
  A 0.78 0.77 69.4 0 0 321.06 759.90
  Q 325.27 756.91 329.89 754.77
  A 0.06 0.06 0.0 0 1 329.94 754.87"
/>
<path stroke="#908590" vector-effect="non-scaling-stroke" d="
  M 576.98 683.54
  A 4.58 4.58 0.0 0 0 572.40 678.96
  L 428.46 678.96
  A 4.58 4.58 0.0 0 0 423.88 683.54
  L 423.88 683.64
  A 4.58 4.58 0.0 0 0 428.46 688.22
  L 572.40 688.22
  A 4.58 4.58 0.0 0 0 576.98 683.64
  L 576.98 683.54"
/>
<path stroke="#804425" vector-effect="non-scaling-stroke" d="
  M 640.08 731.75
  Q 639.06 732.32 637.88 732.44
  Q 637.42 732.48 637.59 732.91
  L 637.81 733.44
  Q 637.88 733.62 638.06 733.56
  Q 641.07 732.60 643.51 732.17
  Q 646.17 731.71 649.88 733.14
  A 0.45 0.45 0.0 0 0 650.42 732.96
  L 650.63 732.63
  Q 651.06 731.97 650.36 731.62
  Q 645.04 728.94 640.08 731.75"
/>
<path stroke="#804425" vector-effect="non-scaling-stroke" d="
  M 668.73 733.18
  C 672.22 732.19 675.40 732.82 678.79 733.95
  Q 679.40 734.15 679.67 733.56
  L 679.77 733.32
  A 0.43 0.43 0.0 0 0 679.53 732.75
  Q 674.01 730.71 668.71 732.11
  A 0.48 0.48 0.0 0 0 668.37 732.69
  L 668.46 733.02
  A 0.23 0.22 74.4 0 0 668.73 733.18"
/>
<path stroke="#908590" vector-effect="non-scaling-stroke" d="
  M 555.75 748.94
  A 4.43 4.43 0.0 0 0 551.32 744.51
  L 450.04 744.51
  A 4.43 4.43 0.0 0 0 445.61 748.94
  L 445.61 749.32
  A 4.43 4.43 0.0 0 0 450.04 753.75
  L 551.32 753.75
  A 4.43 4.43 0.0 0 0 555.75 749.32
  L 555.75 748.94"
/>
<path stroke="#767b87" vector-effect="non-scaling-stroke" d="
  M 549.48 936.65
  Q 546.15 939.71 543.65 943.74
  Q 543.36 944.20 543.76 944.56
  Q 558.98 958.45 555.34 978.71
  C 554.84 981.51 553.52 984.58 551.83 986.87
  Q 550.19 989.10 552.87 988.40
  Q 553.53 988.23 554.14 988.50
  Q 554.71 988.75 555.36 988.80
  Q 563.05 989.40 570.75 988.83
  Q 580.69 988.10 588.72 985.01
  Q 595.96 982.22 599.89 974.95
  Q 600.78 973.29 601.57 971.49
  Q 602.34 969.72 602.60 967.87
  Q 602.95 965.43 603.24 963.31
  Q 603.65 960.22 602.43 954.24
  C 600.37 944.22 593.84 935.01 584.07 931.08
  Q 576.29 927.96 567.69 928.64
  Q 557.30 929.47 549.48 936.65"
/>
<path stroke="#767b87" vector-effect="non-scaling-stroke" d="
  M 548.73 989.45
  C 550.88 987.02 552.01 984.62 553.24 981.78
  Q 553.92 980.19 554.20 978.59
  Q 557.38 960.58 545.57 947.46
  C 543.65 945.33 540.87 943.22 538.25 941.99
  C 522.42 934.56 502.98 939.19 494.70 955.45
  C 492.97 958.84 491.44 963.74 488.40 966.19
  Q 486.23 967.95 487.60 965.51
  C 487.92 964.94 489.19 963.99 489.68 963.07
  Q 491.52 959.58 493.23 955.72
  Q 493.49 955.14 493.20 954.58
  Q 492.52 953.27 492.53 951.85
  A 0.73 0.73 0.0 0 0 491.33 951.29
  Q 488.34 953.85 484.35 954.98
  C 476.83 957.12 469.61 957.55 462.39 954.16
  A 0.32 0.32 0.0 0 0 461.95 954.35
  Q 460.06 960.00 458.70 965.69
  C 458.53 966.40 458.72 967.06 458.52 967.79
  Q 457.21 972.55 458.68 978.28
  Q 460.69 986.13 468.61 989.59
  Q 477.28 993.37 486.10 995.32
  Q 487.24 995.57 488.33 995.87
  Q 492.74 997.11 497.25 997.55
  Q 498.77 997.69 500.27 998.00
  Q 501.72 998.30 503.18 998.44
  Q 508.45 998.98 514.01 999.32
  Q 516.99 999.51 519.85 999.09
  Q 522.51 998.70 525.32 998.45
  Q 536.21 997.46 544.06 993.24
  Q 546.56 991.90 548.73 989.45"
/>
</g>
<path fill="#210b20" d="
  M 594.47 620.30
  Q 593.96 621.50 594.42 622.44
  C 594.62 627.41 595.50 634.20 591.34 638.56
  Q 590.98 638.93 591.06 639.17
  Q 591.16 639.47 591.69 639.70
  Q 590.90 639.62 591.10 640.70
  Q 591.19 641.19 591.60 641.47
  Q 592.98 642.44 592.50 644.10
  C 590.17 643.15 587.39 641.06 584.83 641.66
  Q 583.12 642.06 582.10 642.06
  Q 500.69 642.06 419.29 642.06
  C 417.34 642.06 415.27 641.33 413.14 641.51
  Q 412.30 640.69 412.52 640.50
  Q 407.16 637.32 407.26 631.24
  Q 407.27 630.51 406.50 630.29
  Q 406.90 629.75 406.15 628.36
  Q 406.95 627.62 406.95 627.25
  C 406.82 606.37 404.14 585.40 396.87 565.85
  Q 391.37 551.08 381.16 540.54
  C 375.71 534.91 369.92 529.70 364.76 523.77
  Q 334.29 488.74 324.03 443.25
  Q 322.85 438.01 321.44 429.04
  C 320.37 422.25 320.13 415.60 319.72 408.87
  Q 319.47 404.80 319.63 400.60
  Q 320.63 374.16 327.95 351.11
  Q 345.07 297.12 390.33 261.66
  Q 398.36 255.37 406.86 250.26
  Q 453.30 222.36 507.42 224.20
  C 541.11 225.34 573.97 236.46 601.72 255.35
  C 639.42 281.03 666.07 319.98 676.44 364.40
  Q 677.42 368.61 678.02 372.48
  C 679.07 379.18 680.28 385.66 680.60 392.43
  C 680.85 397.69 681.26 402.89 681.07 408.18
  Q 678.71 474.30 635.49 524.25
  C 630.19 530.38 620.65 538.62 614.57 547.05
  Q 607.68 556.60 603.81 567.61
  Q 597.25 586.31 595.45 606.25
  Q 595.16 609.50 594.47 620.30
  Z
  M 560.28 258.61
  Q 521.20 242.67 478.42 248.35
  C 436.55 253.91 397.50 277.46 372.63 311.62
  C 341.89 353.84 333.67 407.67 350.87 457.10
  Q 361.12 486.54 382.70 510.85
  C 386.99 515.68 391.79 519.96 396.14 524.53
  Q 405.59 534.45 411.73 546.13
  Q 420.55 562.91 425.07 585.24
  C 427.47 597.12 428.16 608.21 428.99 619.90
  A 0.56 0.56 0.0 0 0 429.55 620.43
  L 571.76 620.43
  A 0.65 0.65 0.0 0 0 572.41 619.81
  Q 572.90 610.95 573.65 602.33
  C 575.50 581.23 581.51 559.26 592.33 540.88
  C 594.96 536.39 598.34 532.49 601.37 528.45
  C 606.33 521.82 613.50 516.38 618.29 510.90
  Q 652.38 471.93 657.70 422.75
  Q 662.17 381.35 646.35 343.88
  C 630.05 305.30 599.09 274.45 560.28 258.61
  Z"
/>
<path fill="#ffd517" d="
  M 560.28 258.61
  C 599.09 274.45 630.05 305.30 646.35 343.88
  Q 662.17 381.35 657.70 422.75
  Q 652.38 471.93 618.29 510.90
  C 613.50 516.38 606.33 521.82 601.37 528.45
  C 598.34 532.49 594.96 536.39 592.33 540.88
  C 581.51 559.26 575.50 581.23 573.65 602.33
  Q 572.90 610.95 572.41 619.81
  A 0.65 0.65 0.0 0 1 571.76 620.43
  L 429.55 620.43
  A 0.56 0.56 0.0 0 1 428.99 619.90
  C 428.16 608.21 427.47 597.12 425.07 585.24
  Q 420.55 562.91 411.73 546.13
  Q 405.59 534.45 396.14 524.53
  C 391.79 519.96 386.99 515.68 382.70 510.85
  Q 361.12 486.54 350.87 457.10
  C 333.67 407.67 341.89 353.84 372.63 311.62
  C 397.50 277.46 436.55 253.91 478.42 248.35
  Q 521.20 242.67 560.28 258.61
  Z
  M 583.86 327.29
  Q 579.55 326.51 574.75 326.31
  Q 566.06 325.95 558.21 328.75
  C 555.44 329.74 550.52 332.78 550.76 336.28
  C 551.19 342.69 560.81 340.18 564.60 339.73
  Q 568.74 339.24 571.44 339.35
  Q 587.80 340.00 601.08 349.94
  Q 602.25 350.82 603.92 353.52
  Q 614.86 373.81 617.95 395.44
  Q 618.49 399.27 618.63 403.41
  C 618.85 409.89 618.38 417.58 624.77 421.16
  C 629.41 423.75 635.62 422.74 638.83 418.43
  Q 641.44 414.91 641.29 409.58
  Q 639.95 364.23 614.31 328.87
  C 588.90 293.83 548.95 272.69 505.92 270.86
  C 502.55 270.72 499.41 270.46 496.29 271.63
  C 486.83 275.18 487.41 288.39 496.32 291.92
  C 499.66 293.25 504.31 293.06 508.06 293.25
  Q 512.54 293.49 516.88 294.13
  Q 555.57 299.90 583.86 327.29
  Z
  M 403.46 345.49
  Q 416.36 339.13 431.08 340.96
  Q 435.21 341.47 439.28 342.33
  C 441.87 342.88 445.01 342.93 446.53 340.30
  Q 447.81 338.09 446.40 335.78
  C 443.77 331.51 437.74 329.26 433.15 328.45
  Q 422.01 326.47 409.76 328.45
  C 400.13 330.00 388.06 334.13 381.74 341.68
  C 378.74 345.26 378.26 349.90 382.07 353.09
  Q 385.50 355.96 390.04 353.11
  Q 397.38 348.49 403.46 345.49
  Z
  M 474.53 406.90
  A 41.86 41.86 0.0 0 0 432.67 365.04
  A 41.86 41.86 0.0 0 0 390.81 406.90
  A 41.86 41.86 0.0 0 0 432.67 448.76
  A 41.86 41.86 0.0 0 0 474.53 406.90
  Z
  M 606.78 406.90
  A 41.86 41.86 0.0 0 0 564.92 365.04
  A 41.86 41.86 0.0 0 0 523.06 406.90
  A 41.86 41.86 0.0 0 0 564.92 448.76
  A 41.86 41.86 0.0 0 0 606.78 406.90
  Z
  M 568.34 466.08
  C 574.53 469.05 577.57 473.82 576.67 480.44
  A 0.94 0.94 0.0 0 0 577.53 481.50
  Q 577.70 481.51 577.87 481.50
  Q 578.96 481.41 579.04 480.32
  Q 579.84 469.34 569.99 464.29
  Q 569.10 463.83 568.31 464.44
  Q 567.92 464.74 567.87 465.26
  A 0.83 0.83 0.0 0 0 568.34 466.08
  Z
  M 422.42 479.39
  C 424.13 473.78 426.76 469.66 432.29 467.24
  Q 432.99 466.93 433.28 466.42
  Q 433.80 465.47 432.70 464.83
  A 1.86 1.86 0.0 0 0 430.51 465.06
  Q 429.21 466.26 427.64 467.30
  C 423.98 469.72 421.42 474.02 420.46 478.17
  Q 420.23 479.16 421.01 479.81
  Q 421.42 480.16 421.99 479.89
  A 0.79 0.78 85.9 0 0 422.42 479.39
  Z
  M 493.18 505.67
  C 470.06 504.07 448.71 492.01 434.82 473.62
  Q 433.38 471.71 431.30 472.90
  Q 430.93 473.11 430.63 473.48
  Q 429.65 474.70 430.46 476.05
  Q 432.67 479.71 436.47 483.65
  C 454.23 502.07 477.03 511.59 502.32 510.87
  C 524.54 510.24 544.97 501.99 560.97 486.46
  Q 566.45 481.13 570.13 475.34
  Q 571.37 473.39 569.65 471.86
  Q 569.04 471.31 568.11 471.22
  A 1.82 1.82 0.0 0 0 566.45 471.98
  Q 547.91 498.09 516.02 504.34
  Q 505.00 506.49 493.18 505.67
  Z"
/>
<path fill="#210b20" d="
  M 603.92 353.52
  Q 607.67 354.60 610.74 355.74
  C 612.11 356.25 614.35 355.74 614.70 353.93
  Q 615.00 352.44 616.31 351.52
  Q 617.09 350.97 616.65 351.81
  Q 616.43 352.25 616.16 352.70
  Q 615.78 353.34 616.44 353.01
  Q 617.57 352.46 617.81 351.29
  Q 619.25 344.57 613.48 340.53
  Q 613.17 340.31 613.11 339.93
  Q 613.08 339.77 613.02 339.63
  Q 612.95 339.50 612.81 339.51
  Q 612.73 339.52 612.73 339.60
  Q 612.70 340.04 612.38 339.73
  Q 607.80 335.40 600.25 332.02
  Q 599.45 331.66 598.71 331.43
  Q 594.76 330.19 590.75 328.80
  Q 590.25 328.63 589.72 328.66
  Q 588.69 328.72 587.82 327.93
  Q 587.30 327.45 586.83 327.91
  Q 586.54 328.19 586.19 327.99
  Q 585.08 327.34 583.86 327.29
  Q 555.57 299.90 516.88 294.13
  Q 512.54 293.49 508.06 293.25
  C 504.31 293.06 499.66 293.25 496.32 291.92
  C 487.41 288.39 486.83 275.18 496.29 271.63
  C 499.41 270.46 502.55 270.72 505.92 270.86
  C 548.95 272.69 588.90 293.83 614.31 328.87
  Q 639.95 364.23 641.29 409.58
  Q 641.44 414.91 638.83 418.43
  C 635.62 422.74 629.41 423.75 624.77 421.16
  C 618.38 417.58 618.85 409.89 618.63 403.41
  Q 618.49 399.27 617.95 395.44
  Q 614.86 373.81 603.92 353.52
  Z"
/>
<path fill="#231f20" d="
  M 583.86 327.29
  Q 585.08 327.34 586.19 327.99
  Q 586.54 328.19 586.83 327.91
  Q 587.30 327.45 587.82 327.93
  Q 588.69 328.72 589.72 328.66
  Q 590.25 328.63 590.75 328.80
  Q 594.76 330.19 598.71 331.43
  Q 599.45 331.66 600.25 332.02
  Q 607.80 335.40 612.38 339.73
  Q 612.70 340.04 612.73 339.60
  Q 612.73 339.52 612.81 339.51
  Q 612.95 339.50 613.02 339.63
  Q 613.08 339.77 613.11 339.93
  Q 613.17 340.31 613.48 340.53
  Q 619.25 344.57 617.81 351.29
  Q 617.57 352.46 616.44 353.01
  Q 615.78 353.34 616.16 352.70
  Q 616.43 352.25 616.65 351.81
  Q 617.09 350.97 616.31 351.52
  Q 615.00 352.44 614.70 353.93
  C 614.35 355.74 612.11 356.25 610.74 355.74
  Q 607.67 354.60 603.92 353.52
  Q 602.25 350.82 601.08 349.94
  Q 587.80 340.00 571.44 339.35
  Q 568.74 339.24 564.60 339.73
  C 560.81 340.18 551.19 342.69 550.76 336.28
  C 550.52 332.78 555.44 329.74 558.21 328.75
  Q 566.06 325.95 574.75 326.31
  Q 579.55 326.51 583.86 327.29
  Z"
/>
<path fill="#231f20" d="
  M 403.46 345.49
  Q 397.38 348.49 390.04 353.11
  Q 385.50 355.96 382.07 353.09
  C 378.26 349.90 378.74 345.26 381.74 341.68
  C 388.06 334.13 400.13 330.00 409.76 328.45
  Q 422.01 326.47 433.15 328.45
  C 437.74 329.26 443.77 331.51 446.40 335.78
  Q 447.81 338.09 446.53 340.30
  C 445.01 342.93 441.87 342.88 439.28 342.33
  Q 435.21 341.47 431.08 340.96
  Q 416.36 339.13 403.46 345.49
  Z"
/>
<path fill="#000000" d="
  M 474.53 406.90
  A 41.86 41.86 0.0 0 1 432.67 448.76
  A 41.86 41.86 0.0 0 1 390.81 406.90
  A 41.86 41.86 0.0 0 1 432.67 365.04
  A 41.86 41.86 0.0 0 1 474.53 406.90
  Z
  M 470.95 406.89
  A 38.30 38.30 0.0 0 0 432.65 368.59
  A 38.30 38.30 0.0 0 0 394.35 406.89
  A 38.30 38.30 0.0 0 0 432.65 445.19
  A 38.30 38.30 0.0 0 0 470.95 406.89
  Z"
/>
<path fill="#000000" d="
  M 606.78 406.90
  A 41.86 41.86 0.0 0 1 564.92 448.76
  A 41.86 41.86 0.0 0 1 523.06 406.90
  A 41.86 41.86 0.0 0 1 564.92 365.04
  A 41.86 41.86 0.0 0 1 606.78 406.90
  Z
  M 603.20 406.89
  A 38.30 38.30 0.0 0 0 564.90 368.59
  A 38.30 38.30 0.0 0 0 526.60 406.89
  A 38.30 38.30 0.0 0 0 564.90 445.19
  A 38.30 38.30 0.0 0 0 603.20 406.89
  Z
  M 591.68 376.80
  Q 591.35 376.32 590.81 376.10
  Q 590.13 375.82 590.59 376.40
  Q 591.39 377.42 592.46 378.17
  Q 592.92 378.50 592.77 377.95
  Q 592.63 377.44 592.13 377.18
  A 1.13 1.08 -3.7 0 1 591.68 376.80
  Z
  M 596.9452 382.5562
  A 2.23 0.35 47.2 0 0 595.6868 380.6822
  A 2.23 0.35 47.2 0 0 593.9148 379.2838
  A 2.23 0.35 47.2 0 0 595.1732 381.1578
  A 2.23 0.35 47.2 0 0 596.9452 382.5562
  Z"
/>
<path fill="#ffffff" d="
  M 470.95 406.89
  A 38.30 38.30 0.0 0 1 432.65 445.19
  A 38.30 38.30 0.0 0 1 394.35 406.89
  A 38.30 38.30 0.0 0 1 432.65 368.59
  A 38.30 38.30 0.0 0 1 470.95 406.89
  Z
  M 452.16 412.67
  A 19.47 19.47 0.0 0 0 432.69 393.20
  A 19.47 19.47 0.0 0 0 413.22 412.67
  A 19.47 19.47 0.0 0 0 432.69 432.14
  A 19.47 19.47 0.0 0 0 452.16 412.67
  Z"
/>
<path fill="#ffffff" d="
  M 603.20 406.89
  A 38.30 38.30 0.0 0 1 564.90 445.19
  A 38.30 38.30 0.0 0 1 526.60 406.89
  A 38.30 38.30 0.0 0 1 564.90 368.59
  A 38.30 38.30 0.0 0 1 603.20 406.89
  Z
  M 584.38 412.66
  A 19.47 19.47 0.0 0 0 564.91 393.19
  A 19.47 19.47 0.0 0 0 545.44 412.66
  A 19.47 19.47 0.0 0 0 564.91 432.13
  A 19.47 19.47 0.0 0 0 584.38 412.66
  Z"
/>
<path fill="#231f20" d="
  M 592.13 377.18
  Q 592.63 377.44 592.77 377.95
  Q 592.92 378.50 592.46 378.17
  Q 591.39 377.42 590.59 376.40
  Q 590.13 375.82 590.81 376.10
  Q 591.35 376.32 591.68 376.80
  A 1.13 1.08 -3.7 0 0 592.13 377.18
  Z"
/>
<ellipse fill="#231f20" cx="0.00" cy="0.00" transform="translate(595.43,380.92) rotate(47.2)" rx="2.23" ry="0.35"/>
<path fill="#000000" d="
  M 452.16 412.67
  A 19.47 19.47 0.0 0 1 432.69 432.14
  A 19.47 19.47 0.0 0 1 413.22 412.67
  A 19.47 19.47 0.0 0 1 432.69 393.20
  A 19.47 19.47 0.0 0 1 452.16 412.67
  Z
  M 433.58 430.78
  Q 433.92 431.00 434.25 430.87
  Q 435.92 430.22 437.37 429.91
  Q 439.63 429.43 440.47 429.02
  Q 447.16 425.85 449.65 418.64
  Q 451.28 413.90 450.80 411.32
  Q 450.48 409.63 450.07 407.78
  C 448.40 400.14 441.47 395.11 433.92 394.86
  C 426.48 394.61 420.77 397.18 416.73 403.74
  C 414.61 407.18 415.14 411.02 415.11 414.86
  Q 415.08 417.29 416.04 419.52
  Q 418.81 425.97 424.98 428.87
  Q 426.73 429.69 428.49 429.98
  Q 430.27 430.28 431.78 430.70
  Q 432.39 430.87 432.99 430.69
  A 0.73 0.70 -35.4 0 1 433.58 430.78
  Z"
/>
<path fill="#000000" d="
  M 584.38 412.66
  A 19.47 19.47 0.0 0 1 564.91 432.13
  A 19.47 19.47 0.0 0 1 545.44 412.66
  A 19.47 19.47 0.0 0 1 564.91 393.19
  A 19.47 19.47 0.0 0 1 584.38 412.66
  Z
  M 583.03 412.66
  A 18.06 18.06 0.0 0 0 564.97 394.60
  A 18.06 18.06 0.0 0 0 546.91 412.66
  A 18.06 18.06 0.0 0 0 564.97 430.72
  A 18.06 18.06 0.0 0 0 583.03 412.66
  Z"
/>
<path fill="#231f20" d="
  M 432.99 430.69
  Q 432.39 430.87 431.78 430.70
  Q 430.27 430.28 428.49 429.98
  Q 426.73 429.69 424.98 428.87
  Q 418.81 425.97 416.04 419.52
  Q 415.08 417.29 415.11 414.86
  C 415.14 411.02 414.61 407.18 416.73 403.74
  C 420.77 397.18 426.48 394.61 433.92 394.86
  C 441.47 395.11 448.40 400.14 450.07 407.78
  Q 450.48 409.63 450.80 411.32
  Q 451.28 413.90 449.65 418.64
  Q 447.16 425.85 440.47 429.02
  Q 439.63 429.43 437.37 429.91
  Q 435.92 430.22 434.25 430.87
  Q 433.92 431.00 433.58 430.78
  A 0.73 0.70 -35.4 0 0 432.99 430.69
  Z
  M 437.24 409.21
  A 9.31 9.31 0.0 0 0 427.93 399.90
  A 9.31 9.31 0.0 0 0 418.62 409.21
  A 9.31 9.31 0.0 0 0 427.93 418.52
  A 9.31 9.31 0.0 0 0 437.24 409.21
  Z"
/>
<path fill="#231f20" d="
  M 583.03 412.66
  A 18.06 18.06 0.0 0 1 564.97 430.72
  A 18.06 18.06 0.0 0 1 546.91 412.66
  A 18.06 18.06 0.0 0 1 564.97 394.60
  A 18.06 18.06 0.0 0 1 583.03 412.66
  Z
  M 569.57 409.22
  A 9.31 9.31 0.0 0 0 560.26 399.91
  A 9.31 9.31 0.0 0 0 550.95 409.22
  A 9.31 9.31 0.0 0 0 560.26 418.53
  A 9.31 9.31 0.0 0 0 569.57 409.22
  Z"
/>
<path fill="#000000" d="
  M 437.24 409.21
  A 9.31 9.31 0.0 0 1 427.93 418.52
  A 9.31 9.31 0.0 0 1 418.62 409.21
  A 9.31 9.31 0.0 0 1 427.93 399.90
  A 9.31 9.31 0.0 0 1 437.24 409.21
  Z
  M 435.91 409.13
  A 8.02 8.02 0.0 0 0 427.89 401.11
  A 8.02 8.02 0.0 0 0 419.87 409.13
  A 8.02 8.02 0.0 0 0 427.89 417.15
  A 8.02 8.02 0.0 0 0 435.91 409.13
  Z"
/>
<path fill="#000000" d="
  M 569.57 409.22
  A 9.31 9.31 0.0 0 1 560.26 418.53
  A 9.31 9.31 0.0 0 1 550.95 409.22
  A 9.31 9.31 0.0 0 1 560.26 399.91
  A 9.31 9.31 0.0 0 1 569.57 409.22
  Z
  M 568.22 409.13
  A 8.04 8.04 0.0 0 0 560.18 401.09
  A 8.04 8.04 0.0 0 0 552.14 409.13
  A 8.04 8.04 0.0 0 0 560.18 417.17
  A 8.04 8.04 0.0 0 0 568.22 409.13
  Z"
/>
<circle fill="#ffffff" cx="427.89" cy="409.13" r="8.02"/>
<circle fill="#ffffff" cx="560.18" cy="409.13" r="8.04"/>
<path fill="#000000" d="
  M 576.67 480.44
  C 577.57 473.82 574.53 469.05 568.34 466.08
  A 0.83 0.83 0.0 0 1 567.87 465.26
  Q 567.92 464.74 568.31 464.44
  Q 569.10 463.83 569.99 464.29
  Q 579.84 469.34 579.04 480.32
  Q 578.96 481.41 577.87 481.50
  Q 577.70 481.51 577.53 481.50
  A 0.94 0.94 0.0 0 1 576.67 480.44
  Z"
/>
<path fill="#000000" d="
  M 432.29 467.24
  C 426.76 469.66 424.13 473.78 422.42 479.39
  A 0.79 0.78 85.9 0 1 421.99 479.89
  Q 421.42 480.16 421.01 479.81
  Q 420.23 479.16 420.46 478.17
  C 421.42 474.02 423.98 469.72 427.64 467.30
  Q 429.21 466.26 430.51 465.06
  A 1.86 1.86 0.0 0 1 432.70 464.83
  Q 433.80 465.47 433.28 466.42
  Q 432.99 466.93 432.29 467.24
  Z"
/>
<path fill="#231f20" d="
  M 434.82 473.62
  C 448.71 492.01 470.06 504.07 493.18 505.67
  Q 505.00 506.49 516.02 504.34
  Q 547.91 498.09 566.45 471.98
  A 1.82 1.82 0.0 0 1 568.11 471.22
  Q 569.04 471.31 569.65 471.86
  Q 571.37 473.39 570.13 475.34
  Q 566.45 481.13 560.97 486.46
  C 544.97 501.99 524.54 510.24 502.32 510.87
  C 477.03 511.59 454.23 502.07 436.47 483.65
  Q 432.67 479.71 430.46 476.05
  Q 429.65 474.70 430.63 473.48
  Q 430.93 473.11 431.30 472.90
  Q 433.38 471.71 434.82 473.62
  Z"
/>
<path fill="#000000" d="
  M 594.47 620.30
  Q 600.12 620.03 602.56 620.40
  Q 632.04 624.81 651.42 646.75
  Q 664.70 661.78 675.86 684.74
  A 1.23 1.23 0.0 0 0 676.59 685.37
  C 686.34 688.35 696.73 694.50 695.28 706.21
  A 0.92 0.91 -78.7 0 0 695.94 707.21
  Q 705.83 709.96 711.39 720.48
  Q 715.13 727.56 717.41 734.47
  Q 721.16 745.82 724.64 756.42
  Q 728.58 768.44 736.39 778.88
  Q 739.56 783.12 742.10 787.05
  C 743.51 789.23 744.88 792.79 744.33 795.45
  C 743.18 801.01 738.59 804.37 733.20 803.96
  C 726.38 803.43 721.17 795.41 719.05 789.33
  Q 718.87 788.83 718.43 788.59
  A 0.57 0.56 -73.8 0 0 717.60 789.05
  Q 717.01 798.05 715.05 805.58
  C 713.41 811.89 710.38 818.35 703.59 820.25
  Q 703.02 820.41 702.76 820.93
  Q 699.82 826.65 693.39 826.56
  C 685.52 826.45 682.28 814.19 681.57 808.35
  Q 680.62 800.47 679.45 791.72
  C 678.86 787.29 677.33 782.74 675.32 778.65
  C 671.00 769.88 666.31 763.15 661.39 755.61
  Q 659.77 753.14 657.46 751.20
  C 658.96 750.79 660.85 753.16 661.65 754.27
  C 669.40 765.09 678.83 776.98 680.91 790.76
  Q 682.31 800.03 683.78 809.24
  Q 684.50 813.79 686.53 817.96
  C 688.15 821.28 692.03 824.99 695.97 823.63
  C 699.76 822.32 701.56 816.89 701.69 813.33
  Q 702.19 799.03 698.46 780.98
  Q 697.08 774.29 694.19 769.27
  Q 689.95 761.91 684.42 753.29
  Q 682.18 749.78 680.59 745.80
  Q 680.56 745.73 680.63 745.69
  L 680.63 745.69
  Q 680.79 745.61 680.88 745.75
  Q 684.62 751.83 688.80 757.67
  C 694.17 765.19 698.32 772.39 700.71 782.16
  Q 701.76 786.43 702.59 793.15
  Q 703.42 799.88 704.32 807.36
  Q 704.97 812.80 703.74 817.74
  A 0.30 0.30 0.0 0 0 704.14 818.10
  C 708.68 816.41 711.04 810.68 712.10 806.38
  Q 715.18 793.89 715.80 781.05
  Q 716.09 775.06 715.32 770.47
  C 713.97 762.33 710.58 754.92 707.82 747.38
  Q 706.92 744.90 706.27 741.08
  Q 706.26 741.02 706.32 741.01
  L 706.57 740.95
  Q 706.81 740.89 706.89 741.13
  Q 708.64 746.70 711.18 752.50
  C 714.87 760.91 718.75 770.26 718.29 779.55
  Q 718.11 783.13 719.23 786.46
  C 721.93 794.53 726.65 802.60 736.03 801.90
  C 740.83 801.53 743.69 796.32 742.28 791.95
  Q 741.24 788.75 739.56 786.56
  C 731.22 775.72 724.61 764.99 720.77 752.00
  C 717.76 741.83 715.21 731.69 710.45 722.10
  Q 706.08 713.27 700.06 710.31
  C 693.38 707.02 686.23 705.49 679.41 702.57
  Q 676.64 701.39 674.14 699.06
  Q 673.71 698.66 674.22 698.95
  C 677.04 700.54 679.94 702.07 683.03 702.97
  Q 687.42 704.25 692.25 705.70
  Q 692.98 705.92 692.94 705.16
  Q 692.52 697.40 686.16 692.98
  C 672.86 683.73 654.66 685.42 640.83 692.87
  Q 637.20 694.82 635.51 697.01
  Q 633.40 699.76 632.46 700.63
  C 634.74 693.53 639.69 690.47 646.41 687.88
  Q 647.87 687.31 648.76 686.11
  Q 649.81 684.70 649.64 683.29
  Q 649.19 679.65 646.68 674.90
  C 642.20 666.44 637.51 659.32 629.12 654.40
  Q 619.67 648.86 612.94 647.78
  Q 605.13 646.53 598.04 645.27
  Q 595.20 644.77 592.50 644.10
  Q 592.98 642.44 591.60 641.47
  Q 591.19 641.19 591.10 640.70
  Q 590.90 639.62 591.69 639.70
  C 597.04 642.01 602.48 642.65 608.14 643.77
  C 616.29 645.37 623.33 648.34 630.45 652.84
  Q 631.64 653.59 630.81 652.45
  Q 627.28 647.58 623.58 643.49
  Q 622.31 642.09 620.60 641.20
  Q 620.25 641.02 620.43 640.66
  L 620.54 640.44
  Q 620.64 640.24 620.85 640.33
  C 626.36 642.84 630.86 649.17 634.40 653.92
  Q 637.43 657.97 640.83 662.22
  Q 644.72 667.07 648.33 674.10
  C 649.91 677.19 652.26 682.44 650.67 685.59
  A 0.28 0.27 4.3 0 0 651.00 685.97
  Q 661.98 682.54 673.19 684.64
  A 0.23 0.23 0.0 0 0 673.44 684.31
  C 666.83 670.98 659.14 657.50 649.13 646.77
  Q 630.37 626.65 602.84 622.39
  Q 599.17 621.82 594.42 622.44
  Q 593.96 621.50 594.47 620.30
  Z"
/>
<path fill="#ffffff" d="
  M 591.69 639.70
  Q 591.16 639.47 591.06 639.17
  Q 590.98 638.93 591.34 638.56
  C 595.50 634.20 594.62 627.41 594.42 622.44
  Q 599.17 621.82 602.84 622.39
  Q 630.37 626.65 649.13 646.77
  C 659.14 657.50 666.83 670.98 673.44 684.31
  A 0.23 0.23 0.0 0 1 673.19 684.64
  Q 661.98 682.54 651.00 685.97
  A 0.28 0.27 4.3 0 1 650.67 685.59
  C 652.26 682.44 649.91 677.19 648.33 674.10
  Q 644.72 667.07 640.83 662.22
  Q 637.43 657.97 634.40 653.92
  C 630.86 649.17 626.36 642.84 620.85 640.33
  Q 620.64 640.24 620.54 640.44
  L 620.43 640.66
  Q 620.25 641.02 620.60 641.20
  Q 622.31 642.09 623.58 643.49
  Q 627.28 647.58 630.81 652.45
  Q 631.64 653.59 630.45 652.84
  C 623.33 648.34 616.29 645.37 608.14 643.77
  C 602.48 642.65 597.04 642.01 591.69 639.70
  Z"
/>
<path fill="#000000" d="
  M 406.15 628.36
  Q 406.90 629.75 406.50 630.29
  Q 403.11 630.91 399.92 632.14
  C 378.30 640.51 361.58 656.49 350.49 676.99
  Q 339.93 696.53 335.88 716.02
  Q 335.21 719.22 333.79 728.99
  Q 332.85 735.47 331.56 741.65
  A 0.59 0.59 0.0 0 0 332.44 742.28
  Q 345.14 734.82 358.02 735.61
  Q 358.57 735.64 358.56 735.09
  Q 358.29 722.89 359.92 711.50
  Q 361.72 698.93 367.99 685.18
  Q 376.74 666.01 394.47 652.71
  Q 402.89 646.40 412.52 640.50
  Q 412.30 640.69 413.14 641.51
  C 397.21 650.56 385.16 660.37 375.54 675.98
  Q 359.24 702.47 360.46 734.84
  A 1.37 1.36 1.7 0 0 361.70 736.15
  C 369.80 736.87 378.92 741.35 380.72 749.85
  C 381.56 753.81 380.11 757.71 375.97 758.53
  A 0.55 0.54 -29.0 0 0 375.70 759.46
  C 388.52 771.50 395.99 789.73 403.54 805.66
  Q 410.08 819.45 421.73 829.34
  C 424.28 831.50 427.17 834.73 428.13 837.96
  C 430.14 844.69 425.65 850.45 419.01 851.97
  Q 411.29 853.73 403.60 853.63
  C 393.23 853.49 387.98 845.80 386.29 836.54
  Q 384.94 829.15 383.79 821.46
  Q 382.80 814.78 379.83 808.95
  C 378.27 805.88 373.48 801.83 370.22 805.33
  Q 366.07 809.80 364.24 815.88
  C 359.78 830.76 355.19 844.12 345.33 855.36
  Q 334.83 867.33 319.85 871.24
  Q 314.20 872.72 309.06 872.41
  Q 303.83 872.10 298.16 870.54
  Q 295.07 869.69 292.76 868.08
  Q 292.37 867.80 291.90 867.91
  Q 286.22 869.16 280.94 866.05
  A 1.73 1.66 59.7 0 0 280.06 865.80
  C 277.03 865.75 274.29 865.14 271.25 865.23
  C 266.53 865.39 260.42 863.75 258.72 858.81
  C 256.19 851.48 260.50 845.10 266.16 840.83
  C 274.24 834.72 282.83 828.24 287.10 819.36
  Q 290.30 812.69 293.28 804.26
  Q 298.33 789.97 304.20 779.46
  Q 310.08 768.92 319.18 761.62
  A 0.85 0.85 0.0 0 0 319.34 760.46
  C 315.40 754.86 326.15 746.27 330.10 743.92
  Q 330.52 743.68 330.68 743.22
  C 331.00 742.30 330.63 741.42 330.72 740.35
  Q 331.22 734.94 331.92 729.11
  C 335.72 697.55 349.71 666.47 373.78 645.29
  Q 387.99 632.79 406.15 628.36
  Z
  M 329.94 754.87
  Q 310.24 766.29 301.92 788.52
  Q 296.33 803.46 291.02 816.65
  Q 287.37 825.70 279.30 832.42
  Q 273.21 837.49 266.42 842.82
  C 261.84 846.41 258.37 851.43 260.20 857.45
  A 6.48 6.47 0.6 0 0 264.37 861.71
  Q 266.80 862.52 268.09 862.95
  Q 271.27 864.00 269.47 861.17
  Q 267.50 858.08 269.30 852.61
  C 270.95 847.57 275.10 843.34 278.99 839.99
  C 284.93 834.86 291.03 829.92 295.68 823.90
  Q 300.89 817.13 305.08 810.39
  Q 305.18 810.23 305.35 810.32
  L 305.35 810.32
  Q 305.41 810.35 305.38 810.41
  Q 301.49 818.76 295.65 825.98
  C 288.68 834.58 278.53 840.04 272.44 849.41
  Q 269.86 853.38 270.55 857.89
  Q 270.96 860.54 273.18 862.04
  Q 274.67 863.04 276.56 863.24
  Q 278.08 863.40 277.34 862.06
  Q 275.90 859.46 276.99 856.28
  C 279.37 849.35 285.07 843.92 290.82 839.68
  Q 297.91 834.47 304.99 829.12
  C 313.54 822.66 319.76 815.05 324.75 805.79
  Q 324.82 805.67 324.95 805.73
  L 324.96 805.73
  Q 325.07 805.79 325.02 805.90
  C 317.62 822.78 303.71 831.93 289.57 842.69
  C 285.13 846.06 280.72 850.88 279.24 856.56
  C 277.41 863.62 284.37 865.50 289.55 865.86
  Q 290.31 865.91 289.97 865.22
  C 285.41 855.96 294.46 848.39 301.30 843.99
  C 311.49 837.44 321.04 831.22 329.83 823.12
  C 338.91 814.77 344.41 804.59 346.82 792.50
  A 0.31 0.31 0.0 0 1 347.37 792.37
  Q 347.66 792.75 347.62 793.21
  C 347.00 800.09 344.38 805.73 340.64 811.69
  C 334.15 822.03 323.36 830.96 313.07 837.50
  C 306.01 841.97 296.93 847.16 292.58 854.27
  C 288.60 860.80 294.13 865.64 299.98 867.53
  Q 304.68 869.04 309.36 868.99
  Q 333.91 868.73 347.82 848.54
  Q 354.82 838.39 358.32 827.58
  Q 360.61 820.53 362.89 813.40
  Q 366.17 803.18 375.91 799.66
  C 378.82 798.61 384.42 798.52 386.42 801.46
  Q 386.90 802.16 386.09 801.90
  Q 380.62 800.19 375.01 802.15
  A 0.32 0.32 0.0 0 0 375.02 802.76
  Q 379.56 804.17 381.72 809.14
  Q 385.47 817.77 386.27 827.22
  C 387.18 837.98 388.84 848.53 401.42 851.29
  C 409.20 853.00 417.32 852.13 423.53 846.58
  Q 427.79 842.78 425.33 838.00
  C 421.54 830.62 413.94 827.08 409.29 820.51
  Q 405.78 815.55 403.93 810.64
  Q 400.46 801.41 396.64 792.70
  Q 389.80 777.10 378.17 764.14
  C 373.06 758.44 367.00 754.61 360.39 750.90
  Q 360.04 750.71 359.85 750.77
  A 0.05 0.05 0.0 0 0 359.87 750.87
  C 364.52 750.91 370.07 754.51 373.38 757.38
  Q 373.82 757.75 374.32 757.47
  Q 380.53 753.92 378.38 748.78
  C 374.70 739.95 360.78 736.66 352.64 737.39
  Q 336.40 738.84 323.81 750.28
  Q 321.43 752.45 320.06 755.55
  C 319.53 756.74 319.71 758.08 319.84 759.34
  A 0.78 0.77 69.4 0 0 321.06 759.90
  Q 325.27 756.91 329.89 754.77
  A 0.06 0.06 0.0 0 1 329.94 754.87
  Z"
/>
<path fill="#ffffff" d="
  M 406.50 630.29
  Q 407.27 630.51 407.26 631.24
  Q 407.16 637.32 412.52 640.50
  Q 402.89 646.40 394.47 652.71
  Q 376.74 666.01 367.99 685.18
  Q 361.72 698.93 359.92 711.50
  Q 358.29 722.89 358.56 735.09
  Q 358.57 735.64 358.02 735.61
  Q 345.14 734.82 332.44 742.28
  A 0.59 0.59 0.0 0 1 331.56 741.65
  Q 332.85 735.47 333.79 728.99
  Q 335.21 719.22 335.88 716.02
  Q 339.93 696.53 350.49 676.99
  C 361.58 656.49 378.30 640.51 399.92 632.14
  Q 403.11 630.91 406.50 630.29
  Z"
/>
<path fill="#210b20" d="
  M 599.5085 684.4926
  A 26.11 26.11 0.0 0 1 573.3530 710.5569
  L 427.8332 710.3030
  A 26.11 26.11 0.0 0 1 401.7688 684.1474
  L 401.7715 682.6474
  A 26.11 26.11 0.0 0 1 427.9270 656.5831
  L 573.4468 656.8370
  A 26.11 26.11 0.0 0 1 599.5112 682.9926
  L 599.5085 684.4926
  Z
  M 576.98 683.54
  A 4.58 4.58 0.0 0 0 572.40 678.96
  L 428.46 678.96
  A 4.58 4.58 0.0 0 0 423.88 683.54
  L 423.88 683.64
  A 4.58 4.58 0.0 0 0 428.46 688.22
  L 572.40 688.22
  A 4.58 4.58 0.0 0 0 576.98 683.64
  L 576.98 683.54
  Z"
/>
<rect fill="#ffffff" x="423.88" y="678.96" width="153.10" height="9.26" rx="4.58"/>
<path fill="#ff8749" d="
  M 657.46 751.20
  Q 657.39 751.18 657.31 751.16
  Q 655.65 750.18 654.62 748.49
  A 0.10 0.09 57.2 0 0 654.50 748.46
  L 654.28 748.60
  Q 654.01 748.77 654.19 749.03
  Q 655.07 750.32 655.31 751.74
  Q 655.54 753.12 656.14 754.32
  Q 657.89 757.86 658.72 762.00
  C 660.72 772.03 661.17 784.92 659.39 795.83
  Q 658.36 802.20 657.41 808.59
  C 656.19 816.84 651.28 823.49 642.36 823.94
  C 630.30 824.55 631.31 807.20 632.92 799.74
  C 634.01 794.72 635.31 790.07 635.73 784.84
  Q 636.46 775.73 636.57 767.89
  Q 636.88 746.94 615.79 744.46
  Q 615.58 744.44 615.58 744.64
  L 615.58 744.95
  Q 615.58 745.13 615.75 745.18
  Q 620.32 746.35 624.64 748.58
  Q 627.69 750.16 624.26 750.01
  Q 609.43 749.37 599.40 760.64
  Q 594.66 765.97 589.78 771.05
  C 580.34 780.86 565.87 785.71 554.30 775.97
  Q 554.35 775.87 554.37 775.72
  Q 554.39 775.54 554.58 775.57
  Q 556.00 775.78 557.14 775.43
  Q 573.27 770.38 577.71 754.07
  A 2.02 2.01 82.0 0 1 578.62 752.86
  C 583.62 749.86 587.96 746.51 592.03 742.20
  C 596.98 736.94 601.10 731.17 605.55 725.48
  Q 613.95 714.74 625.77 707.25
  C 633.64 702.27 642.56 700.82 651.76 699.42
  Q 653.86 699.10 656.11 698.40
  Q 656.17 698.39 656.16 698.33
  L 656.11 698.08
  Q 656.06 697.84 655.81 697.86
  Q 649.92 698.53 644.00 698.87
  Q 640.65 699.07 631.48 701.90
  Q 631.84 701.07 632.46 700.63
  Q 633.40 699.76 635.51 697.01
  Q 637.20 694.82 640.83 692.87
  C 654.66 685.42 672.86 683.73 686.16 692.98
  Q 692.52 697.40 692.94 705.16
  Q 692.98 705.92 692.25 705.70
  Q 687.42 704.25 683.03 702.97
  C 679.94 702.07 677.04 700.54 674.22 698.95
  Q 673.71 698.66 674.14 699.06
  Q 676.64 701.39 679.41 702.57
  C 686.23 705.49 693.38 707.02 700.06 710.31
  Q 706.08 713.27 710.45 722.10
  C 715.21 731.69 717.76 741.83 720.77 752.00
  C 724.61 764.99 731.22 775.72 739.56 786.56
  Q 741.24 788.75 742.28 791.95
  C 743.69 796.32 740.83 801.53 736.03 801.90
  C 726.65 802.60 721.93 794.53 719.23 786.46
  Q 718.11 783.13 718.29 779.55
  C 718.75 770.26 714.87 760.91 711.18 752.50
  Q 708.64 746.70 706.89 741.13
  Q 706.81 740.89 706.57 740.95
  L 706.32 741.01
  Q 706.26 741.02 706.27 741.08
  Q 706.92 744.90 707.82 747.38
  C 710.58 754.92 713.97 762.33 715.32 770.47
  Q 716.09 775.06 715.80 781.05
  Q 715.18 793.89 712.10 806.38
  C 711.04 810.68 708.68 816.41 704.14 818.10
  A 0.30 0.30 0.0 0 1 703.74 817.74
  Q 704.97 812.80 704.32 807.36
  Q 703.42 799.88 702.59 793.15
  Q 701.76 786.43 700.71 782.16
  C 698.32 772.39 694.17 765.19 688.80 757.67
  Q 684.62 751.83 680.88 745.75
  Q 680.79 745.61 680.63 745.69
  L 680.63 745.69
  Q 680.56 745.73 680.59 745.80
  Q 682.18 749.78 684.42 753.29
  Q 689.95 761.91 694.19 769.27
  Q 697.08 774.29 698.46 780.98
  Q 702.19 799.03 701.69 813.33
  C 701.56 816.89 699.76 822.32 695.97 823.63
  C 692.03 824.99 688.15 821.28 686.53 817.96
  Q 684.50 813.79 683.78 809.24
  Q 682.31 800.03 680.91 790.76
  C 678.83 776.98 669.40 765.09 661.65 754.27
  C 660.85 753.16 658.96 750.79 657.46 751.20
  Z
  M 640.08 731.75
  Q 639.06 732.32 637.88 732.44
  Q 637.42 732.48 637.59 732.91
  L 637.81 733.44
  Q 637.88 733.62 638.06 733.56
  Q 641.07 732.60 643.51 732.17
  Q 646.17 731.71 649.88 733.14
  A 0.45 0.45 0.0 0 0 650.42 732.96
  L 650.63 732.63
  Q 651.06 731.97 650.36 731.62
  Q 645.04 728.94 640.08 731.75
  Z
  M 668.73 733.18
  C 672.22 732.19 675.40 732.82 678.79 733.95
  Q 679.40 734.15 679.67 733.56
  L 679.77 733.32
  A 0.43 0.43 0.0 0 0 679.53 732.75
  Q 674.01 730.71 668.71 732.11
  A 0.48 0.48 0.0 0 0 668.37 732.69
  L 668.46 733.02
  A 0.23 0.22 74.4 0 0 668.73 733.18
  Z"
/>
<path fill="#210b20" d="
  M 554.30 775.97
  L 552.57 776.03
  L 524.41 775.93
  L 508.16 775.90
  L 476.16 775.89
  L 459.96 775.88
  Q 449.04 776.25 446.24 775.76
  C 430.93 773.09 421.00 759.49 423.76 744.03
  C 425.51 734.28 433.19 725.83 442.74 723.25
  Q 446.81 722.15 454.79 722.17
  Q 502.87 722.32 550.54 722.24
  C 565.83 722.21 577.63 733.95 578.21 749.17
  C 578.23 749.69 578.01 749.86 577.91 750.33
  Q 577.72 751.19 578.48 750.74
  C 584.54 747.20 590.17 742.82 594.30 737.11
  C 604.15 723.49 614.82 710.12 629.29 703.20
  Q 629.88 702.92 630.39 702.50
  Q 631.05 701.95 631.48 701.90
  Q 640.65 699.07 644.00 698.87
  Q 649.92 698.53 655.81 697.86
  Q 656.06 697.84 656.11 698.08
  L 656.16 698.33
  Q 656.17 698.39 656.11 698.40
  Q 653.86 699.10 651.76 699.42
  C 642.56 700.82 633.64 702.27 625.77 707.25
  Q 613.95 714.74 605.55 725.48
  C 601.10 731.17 596.98 736.94 592.03 742.20
  C 587.96 746.51 583.62 749.86 578.62 752.86
  A 2.02 2.01 82.0 0 0 577.71 754.07
  Q 573.27 770.38 557.14 775.43
  Q 556.00 775.78 554.58 775.57
  Q 554.39 775.54 554.37 775.72
  Q 554.35 775.87 554.30 775.97
  Z
  M 555.75 748.94
  A 4.43 4.43 0.0 0 0 551.32 744.51
  L 450.04 744.51
  A 4.43 4.43 0.0 0 0 445.61 748.94
  L 445.61 749.32
  A 4.43 4.43 0.0 0 0 450.04 753.75
  L 551.32 753.75
  A 4.43 4.43 0.0 0 0 555.75 749.32
  L 555.75 748.94
  Z"
/>
<path fill="#000000" d="
  M 640.08 731.75
  Q 645.04 728.94 650.36 731.62
  Q 651.06 731.97 650.63 732.63
  L 650.42 732.96
  A 0.45 0.45 0.0 0 1 649.88 733.14
  Q 646.17 731.71 643.51 732.17
  Q 641.07 732.60 638.06 733.56
  Q 637.88 733.62 637.81 733.44
  L 637.59 732.91
  Q 637.42 732.48 637.88 732.44
  Q 639.06 732.32 640.08 731.75
  Z"
/>
<path fill="#000000" d="
  M 678.79 733.95
  C 675.40 732.82 672.22 732.19 668.73 733.18
  A 0.23 0.22 74.4 0 1 668.46 733.02
  L 668.37 732.69
  A 0.48 0.48 0.0 0 1 668.71 732.11
  Q 674.01 730.71 679.53 732.75
  A 0.43 0.43 0.0 0 1 679.77 733.32
  L 679.67 733.56
  Q 679.40 734.15 678.79 733.95
  Z"
/>
<path fill="#ff8749" d="
  M 329.89 754.77
  Q 325.27 756.91 321.06 759.90
  A 0.78 0.77 69.4 0 1 319.84 759.34
  C 319.71 758.08 319.53 756.74 320.06 755.55
  Q 321.43 752.45 323.81 750.28
  Q 336.40 738.84 352.64 737.39
  C 360.78 736.66 374.70 739.95 378.38 748.78
  Q 380.53 753.92 374.32 757.47
  Q 373.82 757.75 373.38 757.38
  C 370.07 754.51 364.52 750.91 359.87 750.87
  A 0.05 0.05 0.0 0 1 359.85 750.77
  Q 360.04 750.71 360.39 750.90
  C 367.00 754.61 373.06 758.44 378.17 764.14
  Q 389.80 777.10 396.64 792.70
  Q 400.46 801.41 403.93 810.64
  Q 405.78 815.55 409.29 820.51
  C 413.94 827.08 421.54 830.62 425.33 838.00
  Q 427.79 842.78 423.53 846.58
  C 417.32 852.13 409.20 853.00 401.42 851.29
  C 388.84 848.53 387.18 837.98 386.27 827.22
  Q 385.47 817.77 381.72 809.14
  Q 379.56 804.17 375.02 802.76
  A 0.32 0.32 0.0 0 1 375.01 802.15
  Q 380.62 800.19 386.09 801.90
  Q 386.90 802.16 386.42 801.46
  C 384.42 798.52 378.82 798.61 375.91 799.66
  Q 366.17 803.18 362.89 813.40
  Q 360.61 820.53 358.32 827.58
  Q 354.82 838.39 347.82 848.54
  Q 333.91 868.73 309.36 868.99
  Q 304.68 869.04 299.98 867.53
  C 294.13 865.64 288.60 860.80 292.58 854.27
  C 296.93 847.16 306.01 841.97 313.07 837.50
  C 323.36 830.96 334.15 822.03 340.64 811.69
  C 344.38 805.73 347.00 800.09 347.62 793.21
  Q 347.66 792.75 347.37 792.37
  A 0.31 0.31 0.0 0 0 346.82 792.50
  C 344.41 804.59 338.91 814.77 329.83 823.12
  C 321.04 831.22 311.49 837.44 301.30 843.99
  C 294.46 848.39 285.41 855.96 289.97 865.22
  Q 290.31 865.91 289.55 865.86
  C 284.37 865.50 277.41 863.62 279.24 856.56
  C 280.72 850.88 285.13 846.06 289.57 842.69
  C 303.71 831.93 317.62 822.78 325.02 805.90
  Q 325.07 805.79 324.96 805.73
  L 324.95 805.73
  Q 324.82 805.67 324.75 805.79
  C 319.76 815.05 313.54 822.66 304.99 829.12
  Q 297.91 834.47 290.82 839.68
  C 285.07 843.92 279.37 849.35 276.99 856.28
  Q 275.90 859.46 277.34 862.06
  Q 278.08 863.40 276.56 863.24
  Q 274.67 863.04 273.18 862.04
  Q 270.96 860.54 270.55 857.89
  Q 269.86 853.38 272.44 849.41
  C 278.53 840.04 288.68 834.58 295.65 825.98
  Q 301.49 818.76 305.38 810.41
  Q 305.41 810.35 305.35 810.32
  L 305.35 810.32
  Q 305.18 810.23 305.08 810.39
  Q 300.89 817.13 295.68 823.90
  C 291.03 829.92 284.93 834.86 278.99 839.99
  C 275.10 843.34 270.95 847.57 269.30 852.61
  Q 267.50 858.08 269.47 861.17
  Q 271.27 864.00 268.09 862.95
  Q 266.80 862.52 264.37 861.71
  A 6.48 6.47 0.6 0 1 260.20 857.45
  C 258.37 851.43 261.84 846.41 266.42 842.82
  Q 273.21 837.49 279.30 832.42
  Q 287.37 825.70 291.02 816.65
  Q 296.33 803.46 301.92 788.52
  Q 310.24 766.29 329.94 754.87
  A 0.06 0.06 0.0 0 0 329.89 754.77
  Z"
/>
<path fill="#000000" d="
  M 657.31 751.16
  Q 657.19 751.20 657.00 751.13
  Q 656.75 751.03 656.49 751.09
  Q 656.06 751.18 656.23 751.61
  Q 664.28 771.55 662.16 791.07
  Q 661.20 799.82 659.98 808.04
  C 658.69 816.73 655.33 823.60 646.27 826.55
  Q 640.58 828.40 636.20 825.88
  C 628.57 821.49 628.55 811.98 629.90 804.24
  C 631.12 797.25 633.62 790.46 634.13 783.41
  Q 634.73 775.06 634.66 768.04
  Q 634.57 759.87 629.55 752.82
  Q 629.20 752.32 628.58 752.27
  Q 623.30 751.80 619.16 752.03
  C 607.45 752.69 601.22 760.43 594.14 768.65
  Q 589.68 773.82 583.73 778.08
  Q 573.62 785.32 560.81 781.65
  Q 555.71 780.19 552.57 776.03
  L 554.30 775.97
  C 565.87 785.71 580.34 780.86 589.78 771.05
  Q 594.66 765.97 599.40 760.64
  Q 609.43 749.37 624.26 750.01
  Q 627.69 750.16 624.64 748.58
  Q 620.32 746.35 615.75 745.18
  Q 615.58 745.13 615.58 744.95
  L 615.58 744.64
  Q 615.58 744.44 615.79 744.46
  Q 636.88 746.94 636.57 767.89
  Q 636.46 775.73 635.73 784.84
  C 635.31 790.07 634.01 794.72 632.92 799.74
  C 631.31 807.20 630.30 824.55 642.36 823.94
  C 651.28 823.49 656.19 816.84 657.41 808.59
  Q 658.36 802.20 659.39 795.83
  C 661.17 784.92 660.72 772.03 658.72 762.00
  Q 657.89 757.86 656.14 754.32
  Q 655.54 753.12 655.31 751.74
  Q 655.07 750.32 654.19 749.03
  Q 654.01 748.77 654.28 748.60
  L 654.50 748.46
  A 0.10 0.09 57.2 0 1 654.62 748.49
  Q 655.65 750.18 657.31 751.16
  Z"
/>
<rect fill="#ffffff" x="445.61" y="744.51" width="110.14" height="9.24" rx="4.43"/>
<path fill="#000000" d="
  M 476.16 775.89
  Q 489.08 795.64 500.64 818.34
  Q 506.41 829.68 509.67 841.19
  C 512.42 850.95 512.44 859.02 509.54 868.52
  Q 498.93 903.20 487.38 933.13
  Q 487.21 933.57 487.72 933.70
  Q 487.71 933.98 487.85 934.17
  Q 486.30 934.86 486.28 937.12
  Q 486.11 937.86 485.94 937.54
  L 483.37 944.84
  Q 483.27 945.15 482.48 945.42
  Q 475.94 947.33 469.32 945.41
  Q 469.03 944.93 468.24 944.81
  L 471.28 937.05
  Q 471.44 936.90 471.50 936.65
  Q 472.34 935.64 472.35 934.23
  Q 472.58 934.06 472.84 933.43
  Q 485.92 900.40 496.35 866.26
  C 498.31 859.82 499.25 853.73 497.23 846.98
  Q 493.61 834.85 487.12 822.45
  Q 475.77 800.74 461.52 780.97
  Q 460.18 779.12 459.96 775.88
  L 476.16 775.89
  Z"
/>
<path fill="#000000" d="
  M 524.41 775.93
  Q 538.65 796.29 549.91 818.17
  C 554.46 827.01 558.19 836.18 559.61 845.74
  C 560.81 853.84 558.64 860.48 555.51 869.98
  Q 547.10 895.52 536.07 923.03
  Q 535.85 923.58 536.55 923.94
  Q 534.76 924.82 534.73 927.31
  Q 534.42 927.53 534.46 927.75
  L 531.95 934.40
  Q 531.48 934.53 531.49 935.06
  Q 524.61 937.17 517.11 935.44
  Q 516.57 934.67 516.60 934.47
  L 519.60 927.34
  Q 520.15 927.31 519.93 926.73
  Q 521.08 925.41 520.83 924.01
  Q 521.25 923.81 521.53 923.29
  Q 532.40 897.03 542.32 867.77
  Q 544.90 860.19 546.40 853.18
  C 547.57 847.70 544.58 839.67 542.25 834.17
  Q 538.65 825.69 534.19 817.77
  Q 523.15 798.18 509.26 779.97
  Q 508.29 778.69 508.16 775.90
  L 524.41 775.93
  Z"
/>
<path fill="#210b20" d="
  M 521.53 923.29
  Q 521.25 923.81 520.83 924.01
  Q 514.22 925.32 511.24 927.65
  C 506.73 931.17 504.23 935.40 508.05 940.68
  A 0.21 0.20 59.5 0 0 508.30 940.75
  Q 516.85 936.50 526.43 937.82
  Q 530.80 938.42 532.13 938.70
  Q 534.96 939.28 537.58 940.74
  A 1.51 1.51 0.0 0 0 539.45 940.41
  C 542.25 937.18 544.70 935.37 543.29 930.51
  Q 542.32 927.15 536.36 924.07
  Q 541.93 925.23 543.86 929.76
  Q 546.22 935.29 541.25 939.56
  Q 540.85 939.90 540.89 940.42
  L 540.94 940.97
  Q 540.29 940.75 539.96 940.92
  A 0.48 0.48 0.0 0 0 539.93 941.76
  Q 540.52 942.12 541.22 941.97
  L 541.96 943.32
  A 0.58 0.57 -42.7 0 0 542.95 943.36
  Q 548.80 934.30 557.44 930.43
  C 569.62 924.99 585.42 927.39 594.55 937.18
  C 600.56 943.64 603.74 951.88 603.95 960.80
  C 604.20 971.38 599.63 981.08 589.93 985.35
  C 578.35 990.45 563.85 990.68 551.00 989.22
  A 1.80 1.79 23.8 0 0 549.44 989.82
  C 543.35 996.64 532.81 998.84 524.07 999.54
  Q 499.68 1001.51 474.16 992.81
  C 463.41 989.15 456.34 983.54 457.12 971.73
  Q 457.71 962.82 461.32 954.04
  Q 461.59 953.36 461.00 952.94
  C 456.52 949.72 455.96 943.63 459.66 939.66
  Q 464.75 934.19 472.84 933.43
  Q 472.58 934.06 472.35 934.23
  Q 471.92 933.74 471.03 934.36
  Q 470.61 934.65 470.11 934.75
  C 464.46 935.91 458.71 939.71 457.86 945.75
  Q 457.78 946.28 458.12 946.68
  C 458.77 947.47 458.47 948.37 458.97 949.25
  Q 461.00 952.81 465.03 954.08
  Q 470.08 955.67 474.14 955.12
  A 0.74 0.70 57.4 0 1 474.66 955.25
  Q 474.92 955.44 475.24 955.41
  Q 481.03 954.75 486.25 952.93
  C 490.49 951.44 495.53 947.74 495.50 942.84
  C 495.47 938.67 491.47 935.71 487.85 934.17
  Q 487.71 933.98 487.72 933.70
  C 495.16 935.61 499.84 943.21 493.11 949.63
  Q 492.68 950.04 492.85 950.59
  Q 493.32 952.23 493.42 953.93
  Q 493.44 954.26 493.70 954.46
  Q 493.93 954.64 494.42 954.28
  A 0.49 0.39 -85.5 0 0 494.54 954.15
  Q 498.89 946.19 506.96 941.67
  A 0.63 0.63 0.0 0 0 507.15 940.73
  C 503.80 936.47 505.37 931.52 509.27 928.26
  Q 514.54 923.87 521.53 923.29
  Z
  M 549.48 936.65
  Q 546.15 939.71 543.65 943.74
  Q 543.36 944.20 543.76 944.56
  Q 558.98 958.45 555.34 978.71
  C 554.84 981.51 553.52 984.58 551.83 986.87
  Q 550.19 989.10 552.87 988.40
  Q 553.53 988.23 554.14 988.50
  Q 554.71 988.75 555.36 988.80
  Q 563.05 989.40 570.75 988.83
  Q 580.69 988.10 588.72 985.01
  Q 595.96 982.22 599.89 974.95
  Q 600.78 973.29 601.57 971.49
  Q 602.34 969.72 602.60 967.87
  Q 602.95 965.43 603.24 963.31
  Q 603.65 960.22 602.43 954.24
  C 600.37 944.22 593.84 935.01 584.07 931.08
  Q 576.29 927.96 567.69 928.64
  Q 557.30 929.47 549.48 936.65
  Z
  M 548.73 989.45
  C 550.88 987.02 552.01 984.62 553.24 981.78
  Q 553.92 980.19 554.20 978.59
  Q 557.38 960.58 545.57 947.46
  C 543.65 945.33 540.87 943.22 538.25 941.99
  C 522.42 934.56 502.98 939.19 494.70 955.45
  C 492.97 958.84 491.44 963.74 488.40 966.19
  Q 486.23 967.95 487.60 965.51
  C 487.92 964.94 489.19 963.99 489.68 963.07
  Q 491.52 959.58 493.23 955.72
  Q 493.49 955.14 493.20 954.58
  Q 492.52 953.27 492.53 951.85
  A 0.73 0.73 0.0 0 0 491.33 951.29
  Q 488.34 953.85 484.35 954.98
  C 476.83 957.12 469.61 957.55 462.39 954.16
  A 0.32 0.32 0.0 0 0 461.95 954.35
  Q 460.06 960.00 458.70 965.69
  C 458.53 966.40 458.72 967.06 458.52 967.79
  Q 457.21 972.55 458.68 978.28
  Q 460.69 986.13 468.61 989.59
  Q 477.28 993.37 486.10 995.32
  Q 487.24 995.57 488.33 995.87
  Q 492.74 997.11 497.25 997.55
  Q 498.77 997.69 500.27 998.00
  Q 501.72 998.30 503.18 998.44
  Q 508.45 998.98 514.01 999.32
  Q 516.99 999.51 519.85 999.09
  Q 522.51 998.70 525.32 998.45
  Q 536.21 997.46 544.06 993.24
  Q 546.56 991.90 548.73 989.45
  Z"
/>
<path fill="#caeaee" d="
  M 520.83 924.01
  Q 521.08 925.41 519.93 926.73
  Q 516.24 926.52 514.08 929.11
  Q 510.46 933.47 517.11 935.44
  Q 524.61 937.17 531.49 935.06
  Q 534.69 934.57 536.77 931.96
  Q 538.09 930.29 536.71 928.52
  Q 535.95 927.56 534.73 927.31
  Q 534.76 924.82 536.55 923.94
  Q 536.46 924.00 536.36 924.07
  Q 542.32 927.15 543.29 930.51
  C 544.70 935.37 542.25 937.18 539.45 940.41
  A 1.51 1.51 0.0 0 1 537.58 940.74
  Q 534.96 939.28 532.13 938.70
  Q 530.80 938.42 526.43 937.82
  Q 516.85 936.50 508.30 940.75
  A 0.21 0.20 59.5 0 1 508.05 940.68
  C 504.23 935.40 506.73 931.17 511.24 927.65
  Q 514.22 925.32 520.83 924.01
  Z"
/>
<path fill="#210b20" d="
  M 519.93 926.73
  Q 520.15 927.31 519.60 927.34
  Q 517.97 928.02 516.59 928.54
  Q 514.46 929.34 513.92 931.51
  Q 513.80 932.01 514.05 932.45
  Q 514.89 933.89 516.60 934.47
  Q 516.57 934.67 517.11 935.44
  Q 510.46 933.47 514.08 929.11
  Q 516.24 926.52 519.93 926.73
  Z"
/>
<path fill="#210b20" d="
  M 534.73 927.31
  Q 535.95 927.56 536.71 928.52
  Q 538.09 930.29 536.77 931.96
  Q 534.69 934.57 531.49 935.06
  Q 531.48 934.53 531.95 934.40
  Q 534.77 933.14 535.80 930.87
  Q 536.24 929.91 535.80 929.14
  Q 535.37 928.38 534.46 927.75
  Q 534.42 927.53 534.73 927.31
  Z"
/>
<path fill="#caeaee" d="
  M 519.60 927.34
  L 516.60 934.47
  Q 514.89 933.89 514.05 932.45
  Q 513.80 932.01 513.92 931.51
  Q 514.46 929.34 516.59 928.54
  Q 517.97 928.02 519.60 927.34
  Z"
/>
<path fill="#caeaee" d="
  M 534.46 927.75
  Q 535.37 928.38 535.80 929.14
  Q 536.24 929.91 535.80 930.87
  Q 534.77 933.14 531.95 934.40
  L 534.46 927.75
  Z"
/>
<path fill="#caeaee" d="
  M 549.48 936.65
  Q 557.30 929.47 567.69 928.64
  Q 576.29 927.96 584.07 931.08
  C 593.84 935.01 600.37 944.22 602.43 954.24
  Q 603.65 960.22 603.24 963.31
  Q 602.95 965.43 602.60 967.87
  Q 602.34 969.72 601.57 971.49
  Q 600.78 973.29 599.89 974.95
  Q 595.96 982.22 588.72 985.01
  Q 580.69 988.10 570.75 988.83
  Q 563.05 989.40 555.36 988.80
  Q 554.71 988.75 554.14 988.50
  Q 553.53 988.23 552.87 988.40
  Q 550.19 989.10 551.83 986.87
  C 553.52 984.58 554.84 981.51 555.34 978.71
  Q 558.98 958.45 543.76 944.56
  Q 543.36 944.20 543.65 943.74
  Q 546.15 939.71 549.48 936.65
  Z"
/>
<path fill="#caeaee" d="
  M 472.35 934.23
  Q 472.34 935.64 471.50 936.65
  Q 466.44 936.94 464.79 941.16
  Q 464.61 941.63 464.77 942.10
  Q 465.87 945.30 469.32 945.41
  Q 475.94 947.33 482.48 945.42
  Q 487.22 944.79 489.18 940.57
  Q 489.39 940.11 489.20 939.64
  Q 488.35 937.60 486.28 937.12
  Q 486.30 934.86 487.85 934.17
  C 491.47 935.71 495.47 938.67 495.50 942.84
  C 495.53 947.74 490.49 951.44 486.25 952.93
  Q 481.03 954.75 475.24 955.41
  Q 474.92 955.44 474.66 955.25
  A 0.74 0.70 57.4 0 0 474.14 955.12
  Q 470.08 955.67 465.03 954.08
  Q 461.00 952.81 458.97 949.25
  C 458.47 948.37 458.77 947.47 458.12 946.68
  Q 457.78 946.28 457.86 945.75
  C 458.71 939.71 464.46 935.91 470.11 934.75
  Q 470.61 934.65 471.03 934.36
  Q 471.92 933.74 472.35 934.23
  Z"
/>
<path fill="#210b20" d="
  M 471.50 936.65
  Q 471.44 936.90 471.28 937.05
  L 467.06 939.37
  A 2.16 2.16 0.0 0 0 466.22 940.21
  Q 464.72 942.85 468.24 944.81
  Q 469.03 944.93 469.32 945.41
  Q 465.87 945.30 464.77 942.10
  Q 464.61 941.63 464.79 941.16
  Q 466.44 936.94 471.50 936.65
  Z"
/>
<path fill="#caeaee" d="
  M 471.28 937.05
  L 468.24 944.81
  Q 464.72 942.85 466.22 940.21
  A 2.16 2.16 0.0 0 1 467.06 939.37
  L 471.28 937.05
  Z"
/>
<path fill="#210b20" d="
  M 486.28 937.12
  Q 488.35 937.60 489.20 939.64
  Q 489.39 940.11 489.18 940.57
  Q 487.22 944.79 482.48 945.42
  Q 483.27 945.15 483.37 944.84
  Q 486.34 943.09 488.05 940.65
  Q 488.35 940.23 488.11 939.77
  Q 487.47 938.51 485.94 937.54
  Q 486.11 937.86 486.28 937.12
  Z"
/>
<path fill="#caeaee" d="
  M 485.94 937.54
  Q 487.47 938.51 488.11 939.77
  Q 488.35 940.23 488.05 940.65
  Q 486.34 943.09 483.37 944.84
  L 485.94 937.54
  Z"
/>
<path fill="#caeaee" d="
  M 548.73 989.45
  Q 546.56 991.90 544.06 993.24
  Q 536.21 997.46 525.32 998.45
  Q 522.51 998.70 519.85 999.09
  Q 516.99 999.51 514.01 999.32
  Q 508.45 998.98 503.18 998.44
  Q 501.72 998.30 500.27 998.00
  Q 498.77 997.69 497.25 997.55
  Q 492.74 997.11 488.33 995.87
  Q 487.24 995.57 486.10 995.32
  Q 477.28 993.37 468.61 989.59
  Q 460.69 986.13 458.68 978.28
  Q 457.21 972.55 458.52 967.79
  C 458.72 967.06 458.53 966.40 458.70 965.69
  Q 460.06 960.00 461.95 954.35
  A 0.32 0.32 0.0 0 1 462.39 954.16
  C 469.61 957.55 476.83 957.12 484.35 954.98
  Q 488.34 953.85 491.33 951.29
  A 0.73 0.73 0.0 0 1 492.53 951.85
  Q 492.52 953.27 493.20 954.58
  Q 493.49 955.14 493.23 955.72
  Q 491.52 959.58 489.68 963.07
  C 489.19 963.99 487.92 964.94 487.60 965.51
  Q 486.23 967.95 488.40 966.19
  C 491.44 963.74 492.97 958.84 494.70 955.45
  C 502.98 939.19 522.42 934.56 538.25 941.99
  C 540.87 943.22 543.65 945.33 545.57 947.46
  Q 557.38 960.58 554.20 978.59
  Q 553.92 980.19 553.24 981.78
  C 552.01 984.62 550.88 987.02 548.73 989.45
  Z"
/>
<path fill="#caeaee" d="
  M 540.94 940.97
  Q 541.20 941.40 541.22 941.97
  Q 540.52 942.12 539.93 941.76
  A 0.48 0.48 0.0 0 1 539.96 940.92
  Q 540.29 940.75 540.94 940.97
  Z"
/>
</svg>
