<?xml version="1.0" encoding="UTF-8"?>
<svg id="Layer_2" data-name="Layer 2" xmlns="http://www.w3.org/2000/svg" viewBox="0 0 410.33 442.47">
  <defs>
    <style>
      .cls-1 {
        fill: #994d2c;
      }

      .cls-2 {
        fill: #a66b51;
      }

      .cls-3 {
        fill: #f5dbbf;
      }
    </style>
  </defs>
  <g id="BEANS_AND_NUTS" data-name="BEANS AND NUTS">
    <g>
      <g>
        <path class="cls-1" d="M303.1,90.81c11.01-5.43,29.38-83.6,38.94-86.18,18.1-4.89,48.11,20.38,46.38,32.07-2.55,17.32-59.84,68.72-59.84,68.72l-25.48-14.6h0Z"/>
        <path class="cls-2" d="M51.7,145.5s6.93-76.46,76.16-110.24c66.2-32.3,151.19,4.13,200.91,44.95,63.52,52.15,91.55,111.94,70.82,163.78-20.91,52.29-60.7,69.29-60.7,69.29,0,0-283.32-166.34-287.19-167.79h0Z"/>
        <path class="cls-3" d="M259.86,127.17c58.36,35.28,120.67,110.53,100.31,177.6-17.93,59.06-56.84,96.63-139.82,106.73-67.73,8.24-93.64,4.29-127.99,14.32-18.54,5.41-46.55,16.65-53.54,11.17-7.56-5.93-1.17-39.73-12.03-69.58C8.57,317.27-2.19,249.36,7.9,203.33c14.42-65.8,57.67-104.97,112.53-111.95,58.67-7.47,103.63,14.14,139.44,35.79h0Z"/>
      </g>
      <path d="M410.22,213.6c1.83-39.32-19.56-81.67-61.73-121.39,27.71-26.86,42.48-45.34,43.89-54.94,1.29-8.76-8.52-18.55-12.79-22.35-9.79-8.7-25.78-17.63-38.58-14.16-6.18,1.67-10.77,13.33-21.39,43.79-2.21,6.35-4.48,12.85-6.7,18.82-4.88-3.33-9.88-6.54-14.99-9.58-.23-.17-.48-.32-.75-.44-6.88-4.06-13.93-7.82-21.06-11.26-.34-.23-.7-.41-1.08-.52-13.06-6.23-26.38-11.37-39.43-15.08-15.95-4.54-31.45-7.02-46.25-7.48-.36-.06-.72-.07-1.08-.03-19.52-.47-37.81,2.62-54.31,9.24-.05,.02-.09,.02-.14,.04-.06,.02-.12,.06-.18,.09-2.55,1.03-5.06,2.14-7.52,3.34-42.14,20.56-61.95,56.29-71.19,83.07-3.01,2.42-5.92,4.98-8.72,7.69C25.41,142.61,11.2,169.54,3.99,202.48c-10.76,49.1,1.81,118.9,19.05,166.29,5.56,15.28,6.43,31.73,7.14,44.95,.72,13.55,1.2,22.5,6.18,26.41,2.06,1.62,4.88,2.34,8.46,2.34,7.98,0,19.78-3.57,35.66-8.72,4.65-1.51,9.04-2.93,13.01-4.09,19.65-5.74,36.89-6.82,60.74-8.33,17.08-1.08,38.35-2.42,66.61-5.86,41.13-5.01,72.64-16.74,96.33-35.86,21.81-17.61,37.13-41.7,46.83-73.67,.61-2.01,1.15-4.05,1.63-6.09,4.67-4.15,9.08-8.66,13.2-13.5,.14-.14,.27-.29,.39-.45,9.95-11.81,18.13-25.5,24.09-40.41,4.1-10.26,6.38-20.86,6.9-31.7,0-.06,0-.12,0-.17Zm-67.32-11.72c-5.28-8.22-11.3-16.29-17.9-24.09-1.25-5.37-2.56-10.64-3.9-15.79,13.24-2.83,33.11-6.23,51.99-6.15,1.54,13.76,2.98,31.3,3.4,50.93-13.55,.03-24.39,1.64-29.07,2.47-1.43-2.46-2.94-4.91-4.52-7.37Zm-110.54-94.38c-4.05-12.77-8.4-24.3-12.7-34.48,17.51-5.28,37.54-9.89,57.54-11.48,4.36,9.57,10.38,23.61,16.84,41.09-24.22,5.04-41.03,10.85-46.39,12.82-4.94-2.74-10.03-5.4-15.29-7.95Zm-9.9-4.54c-14.09-6.12-29.29-11.18-45.8-14.16,8.46-3.67,20.79-8.64,35.31-13.36,3.53,8.29,7.1,17.5,10.49,27.52Zm72.15-41.98c6.1,3.69,12.02,7.59,17.7,11.65,.16,.13,.33,.26,.51,.36,4.64,3.33,9.12,6.77,13.42,10.3,5.02,4.12,9.8,8.28,14.34,12.46-14.03,1.23-27.02,3.14-38.59,5.3-6.08-16.58-11.83-30.19-16.22-40.01,2.96-.1,5.92-.13,8.85-.07Zm2.2,49.3c4.83,13.6,9.8,28.98,14.41,45.75-2.29,.56-4.14,1.04-5.46,1.39-13.47-12.82-28.36-24.32-43.82-33.67-1.66-1-3.34-2-5.04-3,8.16-2.67,22.07-6.8,39.91-10.47Zm16.48,53.5c.13,.5,.26,1.01,.39,1.51-.42-.43-.84-.87-1.26-1.3,.28-.07,.57-.14,.87-.21Zm65.9-23.46c1.75,2.67,3.41,5.33,4.96,8-1.31-.11-2.62-.2-3.95-.27-.35-2.79-.69-5.37-1.02-7.73Zm1.96,15.8c2.6,.16,5.17,.41,7.66,.75,8.9,17.61,13.46,35.1,13.49,51.97-6.12-1.04-12.13-1.62-17.82-1.88-.41-19.48-1.81-36.97-3.33-50.83Zm-12.32-30.14c.46,2.52,1.83,10.3,3.29,21.86-19.6,.01-39.75,3.5-53.11,6.39-4.56-16.63-9.48-31.92-14.28-45.5,13.01-2.4,27.74-4.46,43.6-5.55,7.62,7.54,14.45,15.16,20.5,22.81Zm-41.68-78.8c5.01-14.37,12.55-36.01,16.16-38.76,9.06-2.27,22.35,4.85,30.94,12.48,7.22,6.41,10.59,12.5,10.19,15.2-1.09,7.43-16.68,26.27-41.88,50.68-3.62-3.24-7.38-6.47-11.28-9.67-3.75-3.08-7.65-6.08-11.64-8.99,2.48-6.57,5.02-13.86,7.49-20.95Zm-56.34,1c.53,1.04,1.48,2.94,2.77,5.63-20.1,1.85-39.91,6.48-57.18,11.73-8.06-17.98-15.59-31-20.13-38.27,25.11,1.87,50.7,9.59,74.55,20.91Zm-84.36-21.34c3.06,4.6,12.21,18.99,22.23,41.14-24.22,7.94-42.2,16.5-46.81,18.76-1.24-.12-2.5-.22-3.76-.32-6.19-21.12-14.43-43.46-17.7-52.14,14.65-5.35,30.19-7.63,46.05-7.44Zm-56.84,12.02c1.12-.55,2.25-1.07,3.38-1.57,3.13,8.31,10.67,28.78,16.64,48.69-9.51-.29-19.4,.13-29.72,1.44-4.03,.51-7.99,1.22-11.9,2.07l-11.33-27.45c8.95-8.75,19.78-16.76,32.93-23.18Zm-38.98,29.5l9.53,23.08c-11.9,3.37-23.11,8.34-33.39,14.82,5.29-12.27,12.91-25.59,23.86-37.9ZM219.87,407.53c-28.03,3.41-49.16,4.74-66.14,5.81-24.37,1.54-41.98,2.65-62.48,8.63-4.09,1.19-8.53,2.64-13.24,4.16-8.29,2.69-16.86,5.47-24.01,7.05-10.05,2.22-12.34,.93-12.7,.65-2.12-1.66-2.68-12.13-3.12-20.54-.73-13.75-1.65-30.86-7.61-47.26C13.72,319.73,1.39,251.72,11.8,204.19c7.9-36.05,24.64-64.52,48.19-83.47,.6-.27,1.13-.7,1.54-1.25,13.01-10.11,28.05-17.35,44.78-21.43,.05,0,.1-.02,.15-.03,4.69-1.14,9.51-2.04,14.46-2.67,7.89-1,15.53-1.47,22.94-1.47,46.25,0,83.25,18.17,113.93,36.72,15.47,9.35,30.36,20.93,43.73,33.84,.18,.21,.37,.41,.58,.58,13.12,12.74,24.77,26.75,34.07,41.21,.04,.06,.08,.13,.12,.2-7.44,19.62-24.62,36.24-24.8,36.41-1.59,1.53-1.65,4.06-.12,5.65,.79,.82,1.84,1.23,2.89,1.23,.99,0,1.99-.37,2.76-1.11,.71-.68,15.61-15.08,24.37-33.76,3.49,6.12,6.85,12.82,9.73,19.96-15.93,38.94-38.89,55.68-39.18,55.89-1.8,1.28-2.22,3.77-.95,5.57,.78,1.1,2.01,1.69,3.27,1.69,.8,0,1.6-.24,2.31-.73,.96-.68,21.95-15.84,38.47-51.39,.88,2.87,1.67,5.79,2.35,8.77-24.28,50.7-50.55,78.92-68.38,93.69-19.37,16.04-33.17,20.07-33.37,20.13-2.12,.59-3.37,2.79-2.79,4.91,.49,1.78,2.1,2.94,3.85,2.94,.35,0,.71-.05,1.06-.14,.61-.17,15.22-4.31,35.83-21.25,17.36-14.27,42.36-40.67,66.02-86.76,.92,9.27,.61,18.85-1.48,28.53-.01,.05-.02,.11-.04,.16-.49,2.26-1.08,4.53-1.77,6.81-19.03,62.7-61.12,94.75-136.48,103.92Zm147.84-120.76c1.99-22.16-3.47-45.9-16.16-70.06,5.25-.79,14.28-1.86,25.06-1.89,.14,20.97-.98,43.95-4.39,66.98-1.46,1.69-2.96,3.35-4.51,4.96Zm14.22-17.69c2.07-18.65,2.77-37.01,2.67-54.07,5.58,.26,11.44,.85,17.37,1.9-.76,8.75-2.77,17.31-6.09,25.61-3.82,9.56-8.49,18.42-13.95,26.56ZM49.58,352.14c.52,2.15-.8,4.31-2.94,4.83-.32,.08-.63,.11-.95,.11-1.8,0-3.44-1.23-3.88-3.06-19.76-81.49-14.89-118.24-14.67-119.76,.31-2.19,2.33-3.71,4.52-3.4,2.18,.31,3.7,2.33,3.4,4.52-.05,.36-4.8,37.05,14.53,116.75Zm185.71,31.97c.73,2.08-.36,4.37-2.45,5.1-40.6,14.28-91.4,17.83-93.54,17.97-.09,0-.18,0-.27,0-2.09,0-3.84-1.62-3.99-3.73-.15-2.2,1.52-4.11,3.72-4.26,.51-.03,51.87-3.62,91.43-17.53,2.08-.73,4.37,.36,5.1,2.45Zm-41.51-36.42c-.34-2.18,1.14-4.22,3.32-4.57,.34-.06,30.67-5.45,63.13-44.42,1.42-1.7,3.94-1.93,5.63-.51,1.7,1.41,1.93,3.94,.51,5.63-34.58,41.51-66.67,46.99-68.02,47.2-.21,.03-.42,.05-.63,.05-1.93,0-3.63-1.41-3.95-3.38Zm-56.02,38.74c-1.85,0-2.89-.16-3.21-.21-2.17-.39-3.62-2.46-3.24-4.64,.38-2.16,2.43-3.6,4.59-3.25,.27,.04,9.96,1.24,32.04-7.23,2.06-.79,4.38,.24,5.17,2.3,.79,2.06-.24,4.38-2.3,5.17-17.68,6.78-28.18,7.86-33.05,7.86Z"/>
    </g>
  </g>
</svg>