<?xml version="1.0" encoding="UTF-8"?>
<svg id="Layer_2" data-name="Layer 2" xmlns="http://www.w3.org/2000/svg" viewBox="0 0 349.13 473.4">
  <defs>
    <style>
      .cls-1 {
        fill: #ebac7f;
      }

      .cls-2 {
        fill: #ffe2bf;
      }
    </style>
  </defs>
  <g id="BEANS_AND_NUTS" data-name="BEANS AND NUTS">
    <g>
      <g>
        <path class="cls-2" d="M143.57,44.65c-34,43.03-25.61,111.15-57.06,158.01-26.5,39.49-58.65,49.11-78.06,111.48-21.66,69.63,38.33,138.84,105.65,151.86,81.36,15.74,133.59-26.1,157.38-72.73,29.52-57.87-2.63-111.06,21-147.03,23.63-35.97,46.19-47.38,52.04-112.55,5.29-58.85-25.51-104.78-66.15-121.1C237.36-3.89,177.54,1.66,143.57,44.65h0Z"/>
        <path class="cls-1" d="M228.84,24.59l-45.46,42.32-26.33-11.6c37.97-40.22,71.79-30.72,71.79-30.72h0Zm-84.65,48.59c-13.12,36.81-19.75,81.51-19.75,81.51l19.75,7.84c15.45-46.9,33.55-73.36,33.55-73.36l-33.55-15.99h0Zm-25.08,97.19c-13.02,32.77-25.71,54.24-25.71,54.24l17.56,6.58c11.54-25.14,20.38-53.61,20.38-53.61l-12.23-7.21h0Zm-37.31,66.33c-20.13,17.02-36.05,44.65-36.05,44.65,17.73,8.1,33.55,29.78,33.55,29.78,12.9-31.14,22.89-65.52,22.89-65.52l-20.38-8.91h0Zm-42.32,60.63c-34.07,70.1,6.27,110.98,6.27,110.98,11.6-33.46,24.45-79.94,24.45-79.94-7.73-23-30.72-31.04-30.72-31.04h0Zm62.7,43.58s-24.25,49.85-31.98,85.27c0,0,25.6,27.52,67.4,19.75,0,0,17.69-36.44,28.84-63.95,0,0-13.24-27.32-64.27-41.07h0Zm6.9-21.32s43.31,17.72,65.45,39.82c0,0,31.55-50.17,31.74-59.88,.19-9.71-9.08-21.58-28.53-33.55-19.45-11.96-45.41-6.07-51.1,0-5.69,6.07-17.56,53.61-17.56,53.61h0Zm25.71-73.67s28.29-12.46,49.85-.31c21.56,12.15,28.53,32.92,28.53,32.92l32.6-59.25s-28.4-1.82-48.28-18.5c-19.88-16.68-33.86-30.41-33.86-30.41,0,0-23.5,34.36-28.84,75.55h0Zm34.8-93.42s29.79,37.35,81.82,41.7c0,0,14.85-26.58,20.69-54.64,0,0-26.57-27.38-62.39-45.36,0,0-22.8,18.71-40.13,58.31h0Zm46.08-75.24s39.59,16.58,64.58,40.6c0,0,6.82-57.39,4.7-63.17-2.12-5.78-23.1-21.28-31.66-18.81-8.57,2.47-21.6,17.45-37.62,41.38h0Zm89.66-6.27s1.72,19.97-4.08,48.91c0,0,22.37,12.22,24.77,34.49,0,0,15.2-46.37-20.69-83.39h0Zm-15.36,70.54c-10.9,39.14-22.57,52.67-22.57,52.67,15.72,13.51,17.96,28.84,17.96,28.84,11.79-23.06,29.88-44.83,29.88-44.83-1.09-29.26-25.27-36.68-25.27-36.68h0Zm-27.59,86.53c-8.62,17.5-26.33,45.86-26.33,45.86l31.35,10.88s2.31-11.91,3.13-21.32c.82-9.41-8.15-35.43-8.15-35.43h0Zm-44.2,77.75c-6.98,14.63-23.2,56.12-23.2,56.12,0,0,57.73-8.42,60.19-12.23,2.46-3.81,9.09-31.04,9.09-31.04,0,0-5.37-16.15-10.95-18.5-5.58-2.34-35.14,5.64-35.14,5.64h0Zm-36.05,83.08l-24.45,51.42s44.56-1.55,55.49-6.9c10.93-5.35,40.84-52.34,32.6-54.24-8.23-1.89-63.64,9.72-63.64,9.72h0Z"/>
      </g>
      <path d="M279.86,8.87C237.19-8.26,175.59-2.33,140.43,42.17c-18.2,23.03-24.67,53.17-30.93,82.32-5.7,26.55-11.59,54.01-26.31,75.94-9.11,13.57-19.1,23.74-28.77,33.58-18.15,18.47-36.91,37.56-49.79,78.94-9.06,29.11-4.73,60.72,12.19,89.01,20.57,34.39,57.55,60.43,96.52,67.97,11.99,2.32,23.61,3.48,34.83,3.48,24.76,0,47.57-5.64,68.12-16.87,31.4-17.16,49.28-42.89,58.74-61.45,16.15-31.67,14.41-61.78,12.88-88.34-1.32-22.82-2.46-42.53,7.91-58.31,5.47-8.33,10.88-15.32,16.11-22.07,17.16-22.16,31.99-41.31,36.57-92.32,5.84-65.07-30.26-109.75-68.64-125.17Zm60.67,124.45c-4.37,48.68-17.86,66.09-34.93,88.13-5.32,6.88-10.83,13.99-16.47,22.58-11.82,17.99-10.55,39.93-9.21,63.17,1.48,25.55,3.15,54.51-12.02,84.25-9.6,18.82-44.25,73.97-119.71,73.96-10.33,0-21.44-1.04-33.34-3.34-36.8-7.12-71.74-31.73-91.17-64.22-11.13-18.61-22.15-48.03-11.42-82.52,12.3-39.53,29.57-57.1,47.86-75.71,9.92-10.1,20.19-20.54,29.71-34.73,15.58-23.21,21.63-51.43,27.49-78.72,6.34-29.55,12.34-57.46,29.38-79.04C179.43,5.72,236.97,.27,276.88,16.3c35.63,14.31,69.13,56.05,63.66,117.03ZM155.43,58.97l26.33,11.6c.52,.23,1.07,.34,1.61,.34,.99,0,1.97-.37,2.73-1.07l45.46-42.32c1.06-.99,1.5-2.47,1.16-3.87s-1.41-2.52-2.81-2.91c-1.47-.41-36.61-9.68-75.78,31.83-.89,.95-1.27,2.27-1.01,3.54s1.12,2.34,2.31,2.87Zm64.35-31.42l-37.2,34.64-18.63-8.2c23.71-23.14,44.85-26.59,55.83-26.43ZM122.97,158.41l19.75,7.84c.47,.19,.98,.28,1.48,.28,.58,0,1.16-.13,1.69-.38,1-.47,1.76-1.33,2.1-2.37,15.07-45.73,32.87-72.09,33.05-72.35,.66-.96,.86-2.17,.56-3.3-.3-1.13-1.09-2.07-2.14-2.57l-33.55-15.99c-1.02-.49-2.2-.52-3.25-.09-1.05,.43-1.86,1.29-2.24,2.35-13.1,36.75-19.87,81.82-19.94,82.27-.27,1.84,.76,3.62,2.48,4.3Zm23.54-79.7l25.42,12.12c-5.35,8.7-18.3,31.54-30.18,66.42l-12.85-5.1c1.68-10.25,7.63-43.9,17.61-73.44Zm-54.5,149.63l17.56,6.58c.46,.17,.94,.26,1.4,.26,1.52,0,2.97-.87,3.64-2.33,11.51-25.08,20.47-53.8,20.56-54.09,.55-1.77-.19-3.69-1.79-4.63l-12.23-7.21c-1.01-.59-2.22-.72-3.33-.34-1.11,.38-1.99,1.22-2.42,2.31-12.74,32.06-25.31,53.47-25.43,53.68-.6,1.02-.72,2.25-.33,3.37,.39,1.11,1.26,2,2.37,2.41Zm29.08-52.17l5.47,3.23c-2.44,7.49-9.26,27.75-17.7,46.73l-9.67-3.62c4.03-7.31,12.7-23.81,21.89-46.33Zm-77,108.81c16.55,7.56,31.82,28.29,31.98,28.5,.76,1.04,1.96,1.64,3.23,1.64,.16,0,.32,0,.48-.03,1.44-.17,2.67-1.1,3.22-2.44,12.84-30.99,22.93-65.59,23.03-65.94,.56-1.93-.4-3.98-2.24-4.78l-20.38-8.91c-1.4-.61-3.02-.37-4.18,.61-20.43,17.28-36.27,44.55-36.93,45.7-.56,.98-.69,2.14-.34,3.22,.34,1.07,1.12,1.95,2.15,2.42Zm38.43-43.61l14.82,6.48c-2.6,8.59-10,32.31-19.17,55.42-5.45-6.47-15.43-17.13-26.76-23.53,4.76-7.59,16.78-25.61,31.11-38.37Zm-8.52,85.72c-8.26-24.58-32.18-33.18-33.2-33.54-1.92-.67-4.03,.2-4.92,2.03-18.17,37.38-15.4,66.69-9.87,84.7,6.04,19.69,16.45,30.39,16.89,30.84,.76,.77,1.79,1.19,2.85,1.19,.29,0,.59-.03,.88-.1,1.35-.31,2.44-1.29,2.9-2.59,11.51-33.2,24.4-79.72,24.53-80.19,.21-.77,.19-1.58-.06-2.34Zm-29.67,72.99c-3.26-4.68-7.7-12.32-10.79-22.57-6.96-23.09-4.3-48.29,7.9-74.97,6.09,3,19.02,10.9,24.57,25.95-1.94,6.96-11.97,42.56-21.69,71.58Zm125.72-19.85c-.57-1.18-14.63-29.13-66.83-43.19-1.85-.5-3.8,.39-4.64,2.11-1,2.05-24.55,50.69-32.29,86.17-.28,1.28,.09,2.62,.98,3.58,.97,1.04,21.31,22.43,55.42,22.43,4.93,0,10.15-.45,15.64-1.47,1.25-.23,2.31-1.04,2.87-2.19,.18-.37,17.87-36.88,28.95-64.2,.42-1.05,.39-2.23-.11-3.25Zm-35.15,62.11c-32.95,5.29-54.61-12.17-60.3-17.45,6.85-29.39,24.59-68.23,29.75-79.22,39.32,11.41,54.19,31.16,57.66,36.62-9.55,23.3-23.48,52.51-27.11,60.06Zm44.93-179.77c-20.67-12.72-48.76-7.17-56.11,.67-5.94,6.33-15.68,43.99-18.52,55.38-.48,1.93,.53,3.92,2.37,4.67,.43,.17,42.81,17.66,64.14,38.94,.75,.75,1.77,1.17,2.83,1.17,.15,0,.3,0,.45-.03,1.21-.14,2.29-.82,2.94-1.85,5.37-8.54,32.15-51.63,32.35-61.93,.23-11.84-10.3-24.64-30.43-37.03Zm-6.11,90.57c-19.54-17.55-49.98-31.57-59.93-35.89,5.61-21.97,12.79-45.37,15.76-48.53,4.23-4.51,28.1-10.39,46.09,.67,17.08,10.51,26.79,21.47,26.62,30.06-.1,5.08-14.17,30.51-28.54,53.69Zm39.09-70.64c.12,.01,.24,.02,.36,.02,1.45,0,2.8-.79,3.5-2.07l32.6-59.25c.66-1.2,.66-2.65,0-3.85-.66-1.2-1.88-1.98-3.25-2.07-.27-.02-27.37-1.97-45.97-17.57-19.52-16.37-33.49-30.06-33.63-30.2-.84-.83-2.01-1.24-3.19-1.13-1.18,.11-2.25,.75-2.91,1.72-.98,1.44-24.1,35.63-29.51,77.3-.19,1.43,.42,2.85,1.57,3.71,1.15,.87,2.69,1.04,4.01,.46,.27-.12,26.76-11.49,46.27-.49,19.87,11.2,26.64,30.52,26.7,30.71,.5,1.51,1.85,2.57,3.43,2.71Zm-26.21-40.39c-7.79-4.39-16.27-5.86-24.14-5.86-9.04,0-17.27,1.94-22.69,3.61,5.2-28.98,18.92-53.83,24.62-63.24,5.42,5.14,16.58,15.5,30.52,27.2,15.17,12.73,34.71,17.2,44.49,18.7l-25.92,47.1c-4.15-7.63-12.4-19.36-26.89-27.52Zm64.81-43.93c1.44,0,2.78-.78,3.49-2.05,.62-1.11,15.21-27.44,21.11-55.78,.27-1.3-.12-2.65-1.04-3.6-1.1-1.14-27.45-28.08-63.46-46.15-1.41-.71-3.11-.52-4.33,.48-.96,.79-23.75,19.78-41.26,59.8-.59,1.36-.39,2.94,.54,4.1,1.26,1.58,31.48,38.75,84.62,43.19,.11,0,.22,.01,.33,.01Zm-77.13-46.4c13.65-30.16,30.47-47.54,36.06-52.8,28.89,15.02,51.49,36.11,57.39,41.85-4.89,21.71-15.08,42.38-18.59,49.11-41.64-4.46-68.33-30.97-74.86-38.16Zm37.56-73.39c.34,1.14,1.18,2.08,2.28,2.54,.39,.16,39.21,16.58,63.36,39.79,.76,.73,1.75,1.12,2.77,1.12,.45,0,.91-.08,1.35-.23,1.43-.51,2.45-1.79,2.62-3.29,2.08-17.54,6.69-58.99,4.49-65.02-2.75-7.5-25.56-24.44-36.53-21.28-5.88,1.69-16.4,8-39.84,43-.67,.99-.85,2.23-.51,3.38Zm42.56-38.69c6.18-1.77,25.16,12.25,26.78,16.29,.91,3.78-1.22,28.94-4.01,53.68-19.97-17.05-45.34-29.51-55.5-34.15,19.5-28.48,28.84-34.69,32.73-35.81Zm49.28,27.63c-1.54,.7-2.47,2.29-2.33,3.98,.02,.2,1.59,19.82-4.01,47.78-.34,1.72,.47,3.46,2,4.3,.21,.11,20.55,11.44,22.71,31.4,.2,1.87,1.68,3.35,3.56,3.55,.14,.02,.28,.02,.42,.02,1.71,0,3.26-1.1,3.8-2.75,.65-1.99,15.52-49.11-21.62-87.42-1.18-1.21-2.99-1.56-4.53-.85Zm21.45,59.08c.19,4.25,.06,8.18-.23,11.64-5.79-10.48-14.8-17.27-19.18-20.14,2.84-15.08,3.67-27.52,3.84-35.86,9.58,12.82,14.81,27.7,15.58,44.36Zm-33.98,11.27c-1.03-.32-2.15-.2-3.09,.32-.95,.52-1.64,1.4-1.93,2.44-10.45,37.5-21.65,51.01-21.75,51.13-.69,.8-1.04,1.85-.96,2.91s.58,2.04,1.38,2.74c14.28,12.28,16.59,26.27,16.61,26.39,.25,1.72,1.59,3.08,3.31,3.37,.22,.04,.44,.05,.65,.05,1.48,0,2.87-.83,3.56-2.18,11.44-22.38,29.21-43.88,29.39-44.1,.63-.76,.96-1.72,.92-2.71-1.18-31.73-27.82-40.27-28.09-40.35Zm-4.83,75.21c-2.36-5.41-6.47-12.44-13.57-19.26,3.86-5.75,11.94-19.87,19.82-46.66,6.06,3.18,17.35,11.51,18.6,29.88-3.46,4.28-15.05,19.02-24.85,36.04Zm-23.68,11.14c-1.62-.11-3.13,.78-3.84,2.23-8.43,17.11-25.96,45.23-26.14,45.51-.64,1.03-.78,2.3-.38,3.45,.41,1.15,1.31,2.05,2.46,2.45l31.35,10.88c.43,.15,.87,.22,1.31,.22,.69,0,1.38-.18,2-.53,1-.58,1.71-1.57,1.93-2.7,.1-.49,2.36-12.23,3.19-21.73,.87-9.97-7.41-34.33-8.35-37.08-.53-1.53-1.92-2.59-3.53-2.69Zm3.92,39.07c-.49,5.55-1.52,12.09-2.25,16.35l-22.22-7.71c4.25-6.92,12.77-21.02,19.43-33.35,2.6,8.65,5.48,19.79,5.05,24.7Zm-11.68,33.34c-6.18-2.59-28.44,2.96-37.73,5.47-1.13,.3-2.07,1.09-2.57,2.14-6.96,14.59-22.65,54.68-23.31,56.38-.52,1.33-.29,2.83,.59,3.95,.77,.96,1.92,1.51,3.13,1.51,.19,0,.38-.01,.58-.04,.15-.02,14.66-2.14,29.29-4.7,31.2-5.46,32.47-7.42,33.69-9.31,2.62-4.06,8.03-25.72,9.62-32.26,.18-.73,.15-1.5-.09-2.21-1.39-4.19-6.47-18.09-13.19-20.92Zm-2.79,50.53c-4.57,2.12-27.92,6.44-50.84,9.94,4.61-11.64,14.37-36.05,19.77-47.75,12.91-3.38,27.88-6.25,30.76-5.34,1.94,.82,5.79,7.81,8.33,15-2.86,11.63-6.51,24.83-8.02,28.15Zm-5.42,28.27c-8.65-1.99-55.96,7.73-65.36,9.7-1.22,.26-2.26,1.07-2.79,2.2l-24.45,51.42c-.6,1.26-.5,2.74,.27,3.91,.74,1.13,2,1.81,3.34,1.81,.05,0,.09,0,.14,0,4.65-.16,45.74-1.74,57.11-7.3,10.65-5.21,37.53-44.9,36.2-56.44-.31-2.74-1.98-4.71-4.46-5.28Zm-15.71,31.25c-8.59,13.22-16.34,21.73-19.54,23.3-7.1,3.48-32.42,5.44-47.26,6.2l20.74-43.62c23.92-4.96,50.17-9.46,58.15-9.47-.79,3.59-4.53,11.96-12.08,23.59Z"/>
    </g>
  </g>
</svg>